<svg xmlns="http://www.w3.org/2000/svg" width="320" height="320" fill="none" viewBox="0 0 320 320">
  <g class="jeff" clip-path="url(#clip0)">
    <g class="buddy--jeff">
      <g class="background">
        <path fill="#F03797" d="M0 0h320v320H0z" class="background--solid--pink"/>
        <path fill="#7E1DFF" d="M0 0h320v320H0z" class="background--solid--purple"/>
        <path fill="#7FE5E2" d="M0 0h320v320H0z" class="background--solid--teal"/>
        <path fill="#FFD555" d="M0 0h320v320H0z" class="background--solid--yellow"/>
        <path fill="#28B886" d="M0 0h320v320H0z" class="background--solid--green"/>
        <path fill="url(#paint0_linear)" d="M0 0h320v320H0z" class="background--gradient--sunrise"/>
        <path fill="url(#paint1_linear)" d="M0 0h320v320H0z" class="background--gradient--eggplant"/>
        <path fill="url(#paint2_linear)" d="M0 0h320v320H0z" class="background--gradient--ocean"/>
        <path fill="url(#paint3_linear)" d="M0 0h320v320H0z" class="background--gradient--blush"/>
        <path fill="url(#paint4_linear)" d="M0 0h320v320H0z" class="background--gradient--sunset"/>
      </g>
      <path fill="#F2CA5C" d="M140.455 240.354h57.235v134.145h-57.235z" class="buddy--jeff--body"/>
      <g class="buddy--jeff--antenna">
        <path fill="#FAE185" d="M147.824 68.328h9.324v33.411h-9.324z" class="Rectangle 279"/>
        <path fill="#FAE185" d="M168.42 81.2h6.276v32.163h-6.276z" class="Rectangle 280"/>
        <ellipse cx="152.096" cy="62.887" fill="#F2CA5C" class="Ellipse 38" rx="8.936" ry="8.547"/>
        <circle cx="171.562" cy="76.494" r="7.845" fill="#F2CA5C" class="Ellipse 39"/>
      </g>
      <g class="buddy--jeff--body--spots">
        <mask id="a" width="58" height="135" x="140" y="240" class="mask0" maskUnits="userSpaceOnUse">
          <path fill="#F2CA5C" d="M140.461 240.354h57.235v134.145h-57.235z" class="Rectangle 281"/>
        </mask>
        <g mask="url(#a)">
          <path fill="#EEAC4F" d="M137.853 266.516c-1.224 1.767-2.71 4.282-2.763 6.483-.426.639-.834 2.42-.834 3.217 0 1.074-.389 2.38-.606 3.44-.292 1.429-.788 2.703-1.247 4.081-1.52 4.56-3.057 9.26-3.609 14.049-.578 5.012-.572 9.823.4 14.787.293 1.499 1.012 2.905 1.307 4.408.448 2.278.956 4.575 1.744 6.758.904 2.503.339 5.014 2.883 6.649 3.142 2.02 7.163-2.428 9.495-3.912 2.618-1.666 5.942-1.641 8.865-2.252 4.515-.945 9.246-3.302 11.941-7.194 1.814-2.62 3.464-5.257 4.893-8.114.824-1.648.853-3.793 1.259-5.571.44-1.923 1.042-3.999 1.042-5.983 0-6.229 2.398-12.086 2.398-18.421 0-.999.375-3.052-.109-3.923-.502-.903-.079-2.388-.497-3.379-.564-1.34-.552-2.775-1.235-4.142-.694-1.389-1.04-3.002-2.132-4.094-1.51-1.51-3.398-3.992-5.619-4.626-1.851-.529-3.378-1.884-5.45-1.962-2.333-.088-5.133-.607-7.424.109-1.06.331-2.205.257-3.258.666-.803.313-1.532.633-2.289.969-.694.308-1.279 1.055-1.974 1.308-.943.343-1.928 1.058-2.761 1.623-1.932 1.311-3.108 3.13-4.42 5.026z" class="Vector 22"/>
          <path fill="#EEAC4F" d="M176.127 247.962c.245-2.579 1.296-5.113 1.296-7.714.344-.173.504-.819.823-1.139.416-.416 1.011-.971 1.308-1.477.519-.883 1.523-1.533 2.35-2.059 2.409-1.533 5.204-1.429 7.944-1.429 1.85 0 3.66.178 5.498.218 1.078.023 2.139.436 3.21.436.94 0 1.883 1.113 2.301 1.853 1.208 2.136 2.593 4.146 3.5 6.443 1.368 3.467 1.187 6.778 1.187 10.451 0 2.186-.176 4.354-.872 6.443-1.014 3.041-1.996 6.167-3.161 9.144-.332.849-.622 1.887-1.417 2.398-.644.414-1.842 1.158-2.616 1.199-.922.048-1.862 0-2.785 0-.764 0-1.956.235-2.665-.049-1.004-.401-1.916-.433-2.882-1.041-.824-.519-1.75-.867-2.568-1.393-1.4-.9-3.649-1.907-4.529-3.403-.612-1.04-1.725-1.81-2.229-2.943-.338-.762-1.032-1.395-1.404-2.192-.396-.848-.955-2.032-1.211-2.931-.475-1.661-1.308-3.035-1.308-4.844 0-2.02.039-3.97.23-5.971z" class="Vector 23"/>
          <path fill="#EEAC4F" d="M192.637 318.551c3.898.725 7.819.823 11.82.823.842.545 2.263-.441 3.052.545.367.459 1.18.739 1.623 1.308.638.821.824 2.354 1.041 3.331.703 3.162.383 6.504.218 9.737-.112 2.215.17 4.293.17 6.467 0 8.509-.441 17.64-4.699 25.275-1.228 2.203-2.555 4.203-4.263 6.068-.509.556-1.443 1.609-2.253 1.756-.71.129-1.578.042-2.252-.158-2.412-.714-3.795-2.365-5.717-3.875-3.159-2.482-6.66-2.909-10.463-3.754-1.997-.444-4.158.41-6.056-.703-2.117-1.241-3.52-3.199-3.766-5.656-.362-3.622-1.005-7.294-1.078-10.96-.05-2.492 0-4.992 0-7.484v-3.755c0-1.206.324-2.246.448-3.427.162-1.539 1.383-3.412 2.18-4.687 1.064-1.703 2.696-3.253 4.396-4.311 2.456-1.528 4.251-3.955 7.025-4.954 2.74-.986 5.575-2.144 8.574-1.586z" class="Vector 24"/>
        </g>
      </g>
      <g class="body--astronaut-spacesuit">
        <path fill="#9FB4C6" d="M197.661 244.285h-57.2v37.4h57.2v-37.4z" class="Vector"/>
        <g class="body 2">
          <path fill="#D1DDE5" d="M138.161 273.285s-8 41.3-7.8 54.6l79.7-.2s-3.3-33.4-11-57.6c0 0-11.6 8.6-32.3 9.1-20.7.5-28.6-5.9-28.6-5.9z" class="Vector_2"/>
          <g class="Group">
            <path fill="#9FB4C6" d="M194.861 310.485l-15.1 2.3c-3.7.6-7.2-2-7.8-5.7l-2.1-14c-.6-3.7 2-7.2 5.7-7.8l15.1-2.3c3.7-.6 7.2 2 7.8 5.7l2.1 14c.6 3.8-2 7.3-5.7 7.8z" class="Vector_3"/>
            <path fill="#C24471" d="M178.461 297.085a3.8 3.8 0 100-7.6 3.8 3.8 0 000 7.6z" class="Vector_4"/>
            <path fill="#4BAC86" d="M190.361 295.285a3.8 3.8 0 100-7.6 3.8 3.8 0 000 7.6z" class="Vector_5"/>
            <path fill="#D1DDE5" d="M193.961 304.485l-15.1 2.3c-1.2.2-2.3-.6-2.5-1.8l-.3-1.9c-.2-1.2.6-2.3 1.8-2.5l15.1-2.3c1.2-.2 2.3.6 2.5 1.8l.3 1.9c.2 1.2-.6 2.3-1.8 2.5z" class="Vector_6"/>
          </g>
        </g>
        <path stroke="#617889" stroke-linecap="round" stroke-miterlimit="10" stroke-width="5" d="M138.761 272.085s10.1 6.4 30.4 5.6c20.3-.8 30.2-8.3 30.2-8.3" class="collar 3"/>
        <path stroke="#617889" stroke-linecap="round" stroke-miterlimit="10" stroke-width="5" d="M138.761 261.085s10.1 6.4 30.4 5.6c20.3-.8 30.2-8.3 30.2-8.3" class="collar 2"/>
        <path stroke="#617889" stroke-linecap="round" stroke-miterlimit="10" stroke-width="5" d="M138.761 249.285s10.1 6.4 30.4 5.6c20.3-.8 30.2-8.4 30.2-8.4" class="collar 1"/>
      </g>
      <g class="buddy--jeff--head">
        <path fill="#F2CA5C" d="M120.951 115.605c22.806-28.175 64.836-22.802 77.357 0 12.52 22.803 22.805 67.965-6.259 100.144-20.253 22.424-28.694 24.659-57.235 0-33.033-28.541-23.486-88.254-13.863-100.144z" class="Rectangle 277"/>
        <path fill="#FBDEA1" d="M226.313 212.631c0 23.252-26.225 35.772-58.576 35.772s-62.154-7.601-62.154-35.772c0-19.756 16.992-32.194 60.812-32.194 43.821 0 59.918 12.438 59.918 32.194z" class="Ellipse 37"/>
      </g>
      <g class="buddy--jeff--ear--left">
        <path fill="#FAE185" d="M116.305 75.803c-5.008-6.081-18.482-6.707-24.593-6.26l-.895 8.048 13.415 17.44 22.357 14.308c-1.341-8.645-5.276-27.455-10.284-33.536z" class="Vector 26"/>
        <path fill="#F2CB60" d="M91.711 69.99c3.134-.894 1.976 5.366 6.711 16.098 6.708 15.202 14.309 7.154 25.039 13.41 4.473 8.947 2.683 16.099 2.683 16.099l-8.496 15.203s-21.951-14.682-27.277-26.382c-5.326-11.7-2.097-33.446 1.34-34.428z" class="Polygon 8"/>
      </g>
      <g class="buddy--jeff--ear--right">
        <path fill="#FAE185" d="M205.154 75.803c5.008-6.081 18.482-6.707 24.593-6.26l.894 8.048-13.414 17.44-22.358 14.308c1.342-8.645 5.277-27.455 10.285-33.536z" class="Vector 26_2"/>
        <path fill="#F2CB60" d="M229.746 69.99c-3.134-.894-3.616 13.292-8.356 16.992-7.929 6.189-14.309 4.472-23.393 12.517-4.474 8.946-2.684 16.098-2.684 16.098l8.496 15.203s21.951-14.682 27.277-26.382c5.326-11.7 2.097-33.446-1.34-34.427z" class="Polygon 8_2"/>
      </g>
      <g class="expression--base">
        <path fill="#15131C" d="M143.571 156.285c3.206 0 5.804-3.712 5.804-8.292 0-4.579-2.598-8.292-5.804-8.292-3.206 0-5.804 3.713-5.804 8.292 0 4.58 2.598 8.292 5.804 8.292z" class="Oval"/>
        <path fill="#15131C" d="M179.356 156.285c3.206 0 5.805-3.712 5.805-8.292 0-4.579-2.599-8.292-5.805-8.292-3.205 0-5.804 3.713-5.804 8.292 0 4.58 2.599 8.292 5.804 8.292z" class="Oval Copy 7"/>
        <g class="buddy--jeff--mouth--smile">
          <path fill="#E57278" d="M166.391 241.246c8.476 0 15.096-4.816 15.096-16.919 0-6.588-7.992-1.896-16.467-1.896-8.476 0-14.225-4.884-14.225.536 0 12.103 7.121 18.279 15.596 18.279z" class="Oval_2"/>
          <path stroke="#15131C" stroke-linecap="round" stroke-width=".991" d="M132.408 204.578s9.336 17.914 33.733 17.914c24.396 0 33.733-17.914 33.733-17.914" class="Path 8"/>
          <path stroke="#FAFBFC" stroke-linecap="round" stroke-width=".495" d="M166.728 225.901v12.985" class="Path 9" opacity=".623"/>
        </g>
      </g>
      <g class="expression--surprised">
        <g class="Group 1395">
          <path fill="#fff" stroke="#15131C" stroke-width=".192" d="M152.748 154.5c0 7.955-6.449 14.404-14.404 14.404-7.954 0-14.403-6.449-14.403-14.404s6.449-14.403 14.403-14.403c7.955 0 14.404 6.448 14.404 14.403z" class="Oval Copy 11"/>
          <g class="Oval Copy 20">
            <mask id="b" width="24" height="24" x="127" y="141" class="mask1" maskUnits="userSpaceOnUse">
              <g class="mask 2">
                <path fill="#fff" d="M138.672 164.262c6.345 0 11.489-5.136 11.489-11.472 0-6.335-5.144-11.471-11.489-11.471-6.345 0-11.489 5.136-11.489 11.471 0 6.336 5.144 11.472 11.489 11.472z" class="Vector_7"/>
              </g>
            </mask>
            <g mask="url(#b)">
              <path fill="#13111A" d="M138.674 164.357c6.345 0 11.488-5.136 11.488-11.471 0-6.336-5.143-11.472-11.488-11.472s-11.489 5.136-11.489 11.472c0 6.335 5.144 11.471 11.489 11.471z" class="Mask"/>
            </g>
          </g>
          <circle cx="143.444" cy="147.911" r="2.636" fill="#fff" class="Ellipse 191"/>
        </g>
        <g class="Group 1396">
          <path fill="#fff" stroke="#15131C" stroke-width=".192" d="M169.781 154.5c0 7.955 6.448 14.403 14.403 14.403s14.404-6.448 14.404-14.403-6.449-14.404-14.404-14.404-14.403 6.449-14.403 14.404z" class="Oval Copy 11_2"/>
          <g class="Oval Copy 20_2">
            <mask id="c" width="24" height="24" x="172" y="141" class="mask2" maskUnits="userSpaceOnUse">
              <g class="mask 2_2">
                <path fill="#fff" d="M183.857 164.261c-6.345 0-11.489-5.136-11.489-11.471 0-6.336 5.144-11.472 11.489-11.472 6.345 0 11.488 5.136 11.488 11.472 0 6.335-5.143 11.471-11.488 11.471z" class="Vector_8"/>
              </g>
            </mask>
            <g mask="url(#c)">
              <path fill="#13111A" d="M183.855 164.357c-6.345 0-11.488-5.136-11.488-11.472 0-6.335 5.143-11.471 11.488-11.471s11.489 5.136 11.489 11.471c0 6.336-5.144 11.472-11.489 11.472z" class="Mask_2"/>
            </g>
          </g>
          <circle r="2.636" fill="#fff" class="Ellipse 191_2" transform="matrix(-1 0 0 1 179.085 147.91)"/>
        </g>
        <g class="buddy--jeff--mouth--smile_2">
          <path fill="#E57278" d="M166.391 241.247c8.476 0 15.097-4.816 15.097-16.92 0-6.588-7.993-1.895-16.468-1.895-8.476 0-14.225-4.884-14.225.535 0 12.104 7.121 18.28 15.596 18.28z" class="Oval_3"/>
          <path stroke="#15131C" stroke-linecap="round" stroke-width=".991" d="M132.408 204.579s9.336 17.914 33.733 17.914c24.396 0 33.733-17.914 33.733-17.914" class="Path 8_2"/>
          <path stroke="#FAFBFC" stroke-linecap="round" stroke-width=".495" d="M166.728 225.901v12.985" class="Path 9_2" opacity=".623"/>
        </g>
      </g>
      <g class="expression--hearts">
        <path fill="#13111A" d="M150.755 153.608a27.106 27.106 0 01-3.055 4.935c-1.195 1.547-2.36 2.8-3.496 3.76-1.116.94-2.154 1.694-3.114 2.262-.94.548-1.645.822-2.115.822-.47 0-1.185-.274-2.144-.822-.94-.548-1.978-1.293-3.114-2.233-1.116-.959-2.282-2.213-3.496-3.76a28.05 28.05 0 01-3.025-4.935c-.862-1.841-1.322-3.535-1.381-5.082-.039-1.547.245-2.791.852-3.731a6.324 6.324 0 012.32-2.174 6.091 6.091 0 013.056-.734c1.292 0 2.448.362 3.466 1.087a8.825 8.825 0 012.086 1.998c.587.744.969 1.351 1.145 1.821l.235.705c.059-.196.147-.46.265-.793.117-.333.47-.901 1.057-1.704a9.281 9.281 0 012.145-2.056c1.038-.725 2.232-1.087 3.584-1.087.861 0 1.674.166 2.438.499a5.38 5.38 0 012.056 1.469 6.089 6.089 0 011.351 2.321c.294.9.353 1.997.177 3.29-.177 1.292-.608 2.673-1.293 4.142z" class="heart"/>
        <path fill="#13111A" d="M196 153.608a27.051 27.051 0 01-3.055 4.935c-1.194 1.547-2.36 2.8-3.495 3.76-1.117.94-2.155 1.694-3.114 2.262-.94.548-1.645.823-2.115.823-.47 0-1.185-.275-2.145-.823-.94-.548-1.978-1.292-3.114-2.233-1.116-.959-2.281-2.213-3.495-3.76a27.96 27.96 0 01-3.026-4.935c-.862-1.841-1.322-3.535-1.381-5.082-.039-1.547.245-2.791.852-3.731a6.315 6.315 0 012.321-2.173 6.075 6.075 0 013.055-.735c1.292 0 2.448.363 3.466 1.087a8.806 8.806 0 012.086 1.998c.588.744.969 1.351 1.146 1.821l.235.705c.058-.196.147-.46.264-.793.118-.333.47-.901 1.058-1.704a9.297 9.297 0 012.144-2.056c1.038-.725 2.233-1.087 3.584-1.087.862 0 1.674.166 2.438.499a5.39 5.39 0 012.056 1.469 6.09 6.09 0 011.352 2.321c.293.901.352 1.997.176 3.29-.176 1.292-.607 2.673-1.293 4.142z" class="heart_2"/>
        <g class="buddy--jeff--mouth--smile_3">
          <path fill="#E57278" d="M166.391 241.247c8.476 0 15.097-4.816 15.097-16.919 0-6.588-7.993-1.896-16.468-1.896-8.476 0-14.225-4.884-14.225.536 0 12.103 7.121 18.279 15.596 18.279z" class="Oval_4"/>
          <path stroke="#15131C" stroke-linecap="round" stroke-width=".991" d="M132.408 204.579s9.336 17.914 33.733 17.914c24.396 0 33.733-17.914 33.733-17.914" class="Path 8_3"/>
          <path stroke="#FAFBFC" stroke-linecap="round" stroke-width=".495" d="M166.728 225.901v12.986" class="Path 9_3" opacity=".623"/>
        </g>
      </g>
      <g class="expression--lol">
        <path stroke="#13111A" stroke-linecap="round" stroke-width="2.8" d="M129.725 147.597s19.28 3.835 19.502 7.557c.147 2.482-18.248 13.538-18.248 13.538" class="Vector 54"/>
        <path stroke="#13111A" stroke-linecap="round" stroke-width="2.8" d="M193.074 143.254s-18.69 6.092-18.469 9.815c.147 2.482 19.723 11.28 19.723 11.28" class="Vector 55"/>
        <g class="buddy--jeff--mouth--smile_4">
          <path fill="#E57278" d="M166.391 241.247c8.476 0 15.096-4.816 15.096-16.92 0-6.588-7.992-1.895-16.467-1.895-8.476 0-14.225-4.884-14.225.535 0 12.104 7.121 18.28 15.596 18.28z" class="Oval_5"/>
          <path stroke="#15131C" stroke-linecap="round" stroke-width=".991" d="M132.408 204.579s9.336 17.914 33.733 17.914c24.396 0 33.733-17.914 33.733-17.914" class="Path 8_4"/>
          <path stroke="#FAFBFC" stroke-linecap="round" stroke-width=".495" d="M166.728 225.901v12.985" class="Path 9_4" opacity=".623"/>
        </g>
      </g>
      <g class="expression--confused">
        <path stroke="#13111A" stroke-linecap="round" stroke-linejoin="round" stroke-width="1.267" d="M147.581 154.884c-7.934 3.16 5.521 8.703 5.918-.331.344-7.861-9.501-7.186-13.317-2.945-1.942 2.158-3.997 4.964-3.308 8.119.955 4.373 7.821 7.263 11.753 5.697 6.66-2.653 10.964-9.005 8.653-16.346-3.575-11.36-22.193-7.979-26.029 1.286-1.952 4.712-3.032 8.176-.569 12.962 2.14 4.157 7.477 4.722 11.591 4.902" class="Vector 67"/>
        <path stroke="#13111A" stroke-linecap="round" stroke-linejoin="round" stroke-width="1.267" d="M185.591 152.599c-7.934 3.16 5.521 8.703 5.918-.331.344-7.861-9.501-7.186-13.317-2.945-1.942 2.158-3.997 4.964-3.308 8.119.955 4.373 7.821 7.263 11.753 5.697 6.66-2.652 10.964-9.005 8.653-16.346-3.575-11.359-22.193-7.979-26.029 1.286-1.952 4.712-3.032 8.176-.569 12.962 2.14 4.157 7.477 4.722 11.591 4.902" class="Vector 68"/>
        <g class="buddy--jeff--mouth--smile_5">
          <path fill="#E57278" d="M166.392 241.247c8.475 0 15.096-4.816 15.096-16.919 0-6.588-7.992-1.896-16.468-1.896-8.475 0-14.224-4.883-14.224.536 0 12.104 7.12 18.279 15.596 18.279z" class="Oval_6"/>
          <path stroke="#15131C" stroke-linecap="round" stroke-width=".991" d="M132.408 204.579s9.337 17.915 33.733 17.915c24.397 0 33.733-17.915 33.733-17.915" class="Path 8_5"/>
          <path stroke="#FAFBFC" stroke-linecap="round" stroke-width=".495" d="M166.729 225.902v12.985" class="Path 9_5" opacity=".623"/>
        </g>
      </g>
      <g class="expression--crying">
        <g class="Group 1437">
          <rect width="28.679" height="4.983" x="121.792" y="156.128" fill="#15131C" class="Rectangle 855" rx="2.492" transform="rotate(-10.418 121.792 156.128)"/>
          <path fill="#C4E6F1" d="M127.836 163.962c0-1.746-.133-3.43.856-4.944.409-.661.779-1.523 1.283-2.023.69-.684 1.885-.899 2.781-.899 2.191 0 3.928-.827 5.99-1.136 1.78-.267 3.948-1.566 5.777-.712 1.659.775 2.139 2.221 2.139 4.108 0 1.372.08 2.885.226 4.258.126 1.191.848 2.316 1.224 3.421.569 1.674 1.953 5.471 1.01 7.254-1.326 2.507-.551 5.099-1.129 7.754-.647 2.975.404 6.449 1.557 9.114.875 2.023-.321 5.172-.321 7.242 0 .557-.094 1.346-.333 1.848-.366.769-.293 1.533-.475 2.373-.228 1.045-.476 2.405-.476 3.471 0 1.712.189 4.068 1.236 5.443.487.639-.166 2.411-.166 3.147 0 1.265-.214 2.541-.214 3.771 0 1.013-.619 2.515-.107 3.483.234.442.073.986.273 1.461.168.396.29.878.428 1.299.714 2.167.728 4.138.262 6.342-.566 2.675-.95 5.632-.048 8.266.305.89.69 1.756.69 2.747 0 .651.303 1.151.107 1.81-.142.475-.251.961-.333 1.436-.182 1.048-1.059 2.086-1.807 2.697-.314.257-1.911-.009-2.353-.112-2.068-.483-4.045 1.16-6.049.512-.496-.161-1.022-.219-1.534-.387-.469-.155-1.047-.511-1.509-.562-1.018-.113-1.837-1.206-2.888-1.336-1.313-.163-5.455.388-5.455-1.811 0-2.275.642-4.435.642-6.742v-2.809c0-.958-1.07-1.433-1.07-2.36 0-2.386 1.274-4.182 1.925-6.405l.003-.01c.362-1.236.639-2.182.639-3.474 0-.988-.329-1.765-.428-2.697-.112-1.061-1.012-1.829-1.069-2.922-.056-1.05.214-2.054.214-3.059 0-1.637.82-3.523 1.378-5.031.499-1.349.789-2.871 1.141-4.271.313-1.241.3-2.559.642-3.77.155-.548-.052-2.582-.499-2.984-.619-.558-.822-2.219-.963-3.035-.202-1.169-.844-2.329-.844-3.521 0-2.919.267-5.539.868-8.378.224-1.057.65-2.108.832-3.158.185-1.072.012-2.334.012-3.422 0-1.287-.508-3.537-1.284-4.544-.599-.778-1.482-1.945-1.711-2.91-.331-1.388-1.07-2.335-1.07-3.833z" class="Vector 69"/>
        </g>
        <g class="Group 1438">
          <rect width="28.615" height="4.639" fill="#15131C" class="Rectangle 855_2" rx="2.32" transform="matrix(.98574 -.1683 .19423 .98096 174.094 151.227)"/>
          <path fill="#C4E6F1" d="M180.138 159.402c0-1.778-.133-3.493.856-5.036.409-.673.779-1.55 1.283-2.06.69-.696 1.885-.915 2.781-.915 2.191 0 3.928-.842 5.99-1.157 1.78-.272 3.948-1.595 5.777-.725 1.659.789 2.139 2.262 2.139 4.184 0 1.397.08 2.938.226 4.336.126 1.213.848 2.359 1.224 3.484.569 1.705 1.953 5.572 1.01 7.388-1.326 2.553-.551 5.193-1.129 7.897-.647 3.029.404 6.568 1.557 9.282.875 2.06-.321 5.267-.321 7.375 0 .567-.094 1.371-.333 1.882-.366.784-.293 1.562-.475 2.416-.228 1.065-.476 2.45-.476 3.536 0 1.744.189 4.143 1.236 5.544.487.65-.166 2.455-.166 3.204 0 1.289-.214 2.588-.214 3.84 0 1.033-.619 2.562-.107 3.548.234.45.073 1.004.273 1.488.168.404.29.894.428 1.322.714 2.208.728 4.215.262 6.46-.566 2.724-.95 5.736-.048 8.418.305.906.69 1.788.69 2.798 0 .663.303 1.172.107 1.843-.142.483-.251.979-.333 1.463-.182 1.067-1.059 2.124-1.807 2.746-1.022.851-9.492 2.215-10.625 2.073-1.313-.166-9.121 3.351-9.121 1.112 0-2.318.6-11.466.6-13.815v-2.861c0-.976-1.07-1.459-1.07-2.404 0-2.429 1.274-4.258 1.925-6.523l.003-.01c.362-1.258.639-2.221.639-3.538 0-1.006-.329-1.797-.428-2.746-.112-1.081-1.012-1.863-1.069-2.976-.056-1.069.214-2.092.214-3.115 0-1.668.82-3.588 1.378-5.125.499-1.373.789-2.923 1.141-4.349.313-1.264.3-2.606.642-3.84.155-.558-.052-2.629-.499-3.039-.619-.568-.822-2.26-.963-3.09-.202-1.191-.844-2.372-.844-3.586 0-2.973.267-5.641.868-8.532.224-1.078.65-2.147.832-3.218.185-1.09.012-2.376.012-3.484 0-1.311-.508-3.603-1.284-4.628-.599-.792-1.482-1.98-1.711-2.963-.331-1.415-1.07-2.378-1.07-3.904z" class="Vector 69_2"/>
        </g>
        <g class="buddy--jeff--mouth--frown">
          <path stroke="#15131C" stroke-linecap="round" stroke-width=".991" d="M132.408 222.497s9.336-17.914 33.733-17.914c24.396 0 33.733 17.914 33.733 17.914" class="Path 8_6"/>
        </g>
      </g>
      <g class="expression--delighted">
        <g class="buddy--jeff--mouth--smile_6">
          <path fill="#E57278" d="M166.391 241.247c8.476 0 15.096-4.816 15.096-16.92 0-6.588-7.992-1.895-16.467-1.895-8.476 0-14.225-4.884-14.225.535 0 12.104 7.121 18.28 15.596 18.28z" class="Oval_7"/>
          <path stroke="#15131C" stroke-linecap="round" stroke-width=".991" d="M132.408 204.579s9.336 17.914 33.733 17.914c24.396 0 33.733-17.914 33.733-17.914" class="Path 8_7"/>
          <path stroke="#FAFBFC" stroke-linecap="round" stroke-width=".495" d="M166.728 225.901v12.985" class="Path 9_6" opacity=".623"/>
        </g>
        <path stroke="#15131C" stroke-linecap="round" stroke-linejoin="round" stroke-width="1.064" d="M135.927 171.306c-.654-6.945-1.693-14.062 0-20.929 1.908-7.737 14.099-14.284 18.004-4.243 2.026 5.211 2.018 10.532 2.018 16.067v9.978" class="Vector 74"/>
        <path stroke="#15131C" stroke-linecap="round" stroke-linejoin="round" stroke-width="1.064" d="M170.207 172.091c-.868-9.221-3.079-21.786 4.748-28.634 4.501-3.939 11.243-3.21 13.533 2.678 3.131 8.05 2.019 17.555 2.019 26.045" class="Vector 75"/>
      </g>
      <g class="expression--lashes">
        <g class="Group 1449">
          <path stroke="#000" stroke-linecap="round" stroke-linejoin="round" d="M128.2 144.516c1.076 7.936 1.853 16.826 10.422 19.58 2.176.699 4.864.317 6.743-.958 6.68-4.533 6.974-15.464 6.974-22.76" class="Vector 96"/>
          <path stroke="#000" stroke-linecap="round" stroke-linejoin="round" d="M127.604 144.388c-1.189.422-2.311.655-3.542.819" class="Vector 97"/>
          <path stroke="#000" stroke-linecap="round" stroke-linejoin="round" d="M128.358 147.406c-1.135.314-2.42.558-3.607.558" class="Vector 98"/>
          <path stroke="#000" stroke-linecap="round" stroke-linejoin="round" d="M128.545 149.688c-1.253.475-2.499 1.056-3.794 1.38" class="Vector 99"/>
        </g>
        <g class="Group 1450">
          <path stroke="#000" stroke-linecap="round" stroke-linejoin="round" d="M194.717 144.388c-.813 5.995-1.416 11.172-4.572 16.336-2.254 3.689-9.225 4.708-12.606 2.414-6.68-4.533-6.973-15.464-6.973-22.76" class="Vector 96_2"/>
          <path stroke="#000" stroke-linecap="round" stroke-linejoin="round" d="M194.717 144.388c1.189.422 2.895.655 4.126.819" class="Vector 97_2"/>
          <path stroke="#000" stroke-linecap="round" stroke-linejoin="round" d="M194.705 147.274c1.135.313 2.262.689 3.448.689" class="Vector 98_2"/>
          <path stroke="#000" stroke-linecap="round" stroke-linejoin="round" d="M194.36 149.688c1.252.475 2.498 1.056 3.793 1.38" class="Vector 99_2"/>
        </g>
        <g class="buddy--jeff--mouth--smile_7">
          <path fill="#E57278" d="M166.391 241.248c8.476 0 15.096-4.816 15.096-16.92 0-6.588-7.992-1.895-16.467-1.895-8.476 0-14.225-4.884-14.225.535 0 12.104 7.121 18.28 15.596 18.28z" class="Oval_8"/>
          <path stroke="#15131C" stroke-linecap="round" stroke-width=".991" d="M132.408 204.58s9.336 17.914 33.733 17.914c24.396 0 33.733-17.914 33.733-17.914" class="Path 8_8"/>
          <path stroke="#FAFBFC" stroke-linecap="round" stroke-width=".495" d="M166.728 225.902v12.985" class="Path 9_7" opacity=".623"/>
        </g>
      </g>
      <g class="head--safari-hat">
        <g class="hat back 1">
          <path fill="#B8884F" d="M119.25 118.1c-5.7.9-11.4 2-16.9 3.3-9.5 2.2-25.7 5.1-31.6 13-8.2 11.1 1.3 26.3 10.1 33.9 9.3 8.1 21.6 12.9 34.7 15.7-7.4-25.8-2.4-54.7 3.7-65.9z" class="Vector_9"/>
          <path fill="#B8884F" d="M255.75 139.9c-1-9.3-13-12.3-20.3-15.1-11-4.1-22.8-6.1-34.4-7.4-.6-.1-1.2-.1-1.8-.2 8.2 15.8 14.9 40.8 9.7 65.1 4.4-1 8.8-2.2 13.2-3.6 15.6-4.7 37.5-18.9 33.6-38.8z" class="Vector_10"/>
        </g>
        <path fill="#CDA372" d="M208.45 117.9c-.3-1.4-.6-2.6-.9-3.8-1.1-4.2-2.2-8.5-3.4-12.7-1.4-4.9-2.7-9.8-4.7-14.4-.7-1.7-1.6-3.2-2.8-4.4-.6-.6-1.3-1.3-1.9-2-2.2-2.4-3.9-5.1-4.4-8.8-.4-2.9-1.1-5.8-1.8-8.6-.8-3.3-2.4-6-4.8-7.7-2.2-1.5-4.8-2.4-7.4-2.3-2.7.1-5.4.4-8.2.7-4.2.4-8.3.4-12.5 0-2.8-.3-5.6-.5-8.4-.7-4.7-.4-10.4 2.9-11.8 8.9-.8 3.5-1.5 7.1-2.3 10.6-.3 1.4-.6 2.8-1.2 3.9-1.1 1.8-2.4 3.3-3.7 4.8-1.7 1.9-3.3 3.9-4.3 6.5-1.5 3.6-2.6 7.4-3.7 11.2-1.7 6.2-3.4 12.4-5.1 18.8h93.3z" class="hat top 2"/>
        <path fill="#B8884F" d="M189.25 88c-4.2.5-8.9-1.6-11.3-5.8-2.8-4.8-2.7-11-1.4-16.4.5-2.1 1.1-4.6 2.8-6 2-1.7 4-.4 4.8 2 1 2.8 1.6 5.8 2.4 8.7.7 2.6 1.2 5.3 2.5 7.6 1.4 2.4 4 3.8 5 6.4 1.1 3.6-2.9 3.5-4.8 3.5z" class="right 1"/>
        <path fill="#E7BE8F" d="M135.45 88.1c-1.3-.1-3.4.2-4.3-1.2-1.4-2.1 1.6-4.8 2.7-6.1 1.8-2.2 3.1-4.4 3.9-7.4.9-3.2 1.6-6.4 2.5-9.6.5-1.8.9-4.4 2.9-4.7 2.1-.4 3.5 1.7 4.2 3.7 2.1 5.5 2.7 12.4.3 17.9-2.3 5.2-7.3 7.4-12.2 7.4z" class="left 1"/>
        <path fill="#404040" d="M198.45 98.3c0 .8-.4 1.7-1.4 1.6-1-.1-1.6-1.4-1.5-2.3 0-.8.6-1.7 1.6-1.4.9.2 1 1.2 1.3 2.1zm-74.4 1.5c2.1.6 2.9-3.8.7-3.7-1.4 0-2.2 3.2-.7 3.7zm5.3.3c1.7.6 2.8-3 1-3.5-1.6-.5-2.7 2.9-1 3.5zm63.2-2.9c-.4-.7-1.5-.9-2.1-.2-.5.7-.1 2 .3 2.6.5.6 1.3.7 1.9.2.8-.7.4-1.9-.1-2.6z" class="dots 1"/>
        <path stroke="#404040" stroke-linecap="round" stroke-miterlimit="10" stroke-width="3" d="M114.55 116c.2-.1 26.2-7.9 47.7-9.8 21.5-1.9 43.9 1.2 43.9 1.2" class="rope 2 1"/>
        <path stroke="#404040" stroke-linecap="round" stroke-miterlimit="10" stroke-width="3" d="M208.25 116c-.2-.1-26.2-7.9-47.7-9.8-21.5-1.9-43.9 1.2-43.9 1.2" class="rope 1 1"/>
        <path fill="#CDA372" d="M115.05 116c-12.4 2.8-47.2 6.5-47.5 24.6 9.3-10.3 39-18.2 93.2-18 54.2.3 82.9 7.8 95 16.7-1.8-13.2-22.9-18.1-33.3-20.6-9.1-2.2-18.5-3.6-27.9-4.6-26.5-2.8-53.2-2.1-79.5 1.9z" class="hat brim 2"/>
      </g>
      <g class="face--safari-glasses">
        <path fill="#404040" d="M219.27 154.099c.5 13.3-8.5 24.2-22.3 24.3-12.5.1-26-15.7-29.1-24.7-6.1-17.7 14.8-19 26.7-18.8 17.9.3 24.5 3.2 24.7 19.2zm-116.7 1.1c-.2 13.3 9 24 22.8 23.9 12.5-.1 25.6-16.2 28.5-25.2 5.8-17.9-15.1-18.7-27-18.3-17.9.7-24.5 3.7-24.3 19.6z" class="shadoes 1" opacity=".6"/>
        <path stroke="#D69100" stroke-miterlimit="10" stroke-width="2" d="M219.27 154.099c.5 13.3-8.5 24.2-22.3 24.3-12.5.1-26-15.7-29.1-24.7-6.1-17.7 14.8-19 26.7-18.8 17.9.3 24.5 3.2 24.7 19.2zm-116.7 1.1c-.2 13.3 9 24 22.8 23.9 12.5-.1 25.6-16.2 28.5-25.2 5.8-17.9-15.1-18.7-27-18.3-17.9.7-24.5 3.7-24.3 19.6z" class="rims 1"/>
        <path fill="#D69100" d="M222.87 154.899h-3.7v-3.6h3.7c.9 0 1.7.7 1.7 1.7v.3c-.1.8-.8 1.6-1.7 1.6zm-123.9 1.2h3.7v-3.6h-3.7c-.9 0-1.7.8-1.7 1.7v.3c0 .9.8 1.6 1.7 1.6z" class="sides 1"/>
        <path stroke="#D69100" stroke-miterlimit="10" stroke-width="2" d="M154.27 144.399c0-1.4 1.1-3.6 6.5-3.7 5.3 0 6.5 2.2 6.5 3.6" class="nose 1"/>
        <path stroke="#D69100" stroke-miterlimit="10" stroke-width="2" d="M184.27 135.299l-47.2.5" class="bar 1"/>
      </g>
      <g class="body--safari-shirt">
        <path fill="#B8884F" d="M132.676 265.38s-10.3 42.5-9.3 54.6h93.1s.2-10.1-4.4-28.1c-4.6-18-8.2-29.8-8.2-29.8l-34.6 11.1-36.6-7.8z" class="shirt 1"/>
        <path fill="#CDA372" d="M186.476 283.08s-1.2 13.5 1.4 16c2.6 2.5 15.7 3.5 16.4-2.2.6-4.8 0-13.8 0-13.8h-17.8z" class="pocket 2"/>
        <path fill="#A1723A" d="M186.376 280.88c1-.7 17.3-1.5 18.2 0 .9 1.5.9 7.7-.6 8.4-1.7.7-15.8 1.5-16.7.6-.9-1-2.9-7.6-.9-9z" class="pocket top 3"/>
        <path fill="#404040" d="M197.676 287.38c0 .7-.4 1.5-1.5 1.4-1-.1-1.5-.7-1.5-1.4s.7-1.2 1.5-1.2 1.5.5 1.5 1.2z" class="pocket button 3"/>
        <path fill="#CDA372" d="M152.276 282.08s1.2 13.5-1.4 16c-2.6 2.5-15.7 3.4-16.4-2.2-.6-4.8 0-13.8 0-13.8h17.8z" class="pocket 1"/>
        <path fill="#A1723A" d="M152.376 279.88c-1-.7-17.3-1.5-18.2 0-.9 1.5-.9 7.7.6 8.4 1.6.7 15.7 1.5 16.6.5 1.1-.9 3-7.5 1-8.9z" class="pocket top 2"/>
        <path fill="#404040" d="M141.176 286.38c0 .7.4 1.5 1.5 1.4 1-.1 1.5-.7 1.5-1.4s-.7-1.2-1.5-1.2c-.9 0-1.5.5-1.5 1.2z" class="pocket button 2"/>
        <path fill="#CDA372" d="M170.176 272.18s-32-16.3-33.6-16.6c-1.6-.3-3-1.4-4.6 2.6-1.6 4-4.3 11.9-3.3 13.2 1 1.3 27.8 15.3 28.4 15.3.6 0 4.6-11.7 8.1-12.6 3.5-.9 4.1 2 5.1 2.6.9.6 1.3-3.6 2-3.8.6-.1 3.6 1 7.1 5.1 3.5 4 4.8 8.2 5.7 8.7.9.5 24.5-12.4 24.5-19.9 0-2.8-6.6-13.3-9.4-13.2-2.8.1-2.1 1.6-10 7.1-7.3 5.1-20 11.5-20 11.5z" class="collar 1_2"/>
        <path stroke="#404040" stroke-linecap="round" stroke-miterlimit="10" stroke-width="2" d="M170.976 279.68s2.1 4.7 2.4 9.1c.3 4.3-.2 7.4.2 9.8.4 2.3 1.4 8.9 1.5 12.6.2 3.5-.8 11.9-.8 11.9" class="line 1"/>
        <path fill="#404040" d="M168.476 304.58c0 4.2-6.7 3.9-5.8-.5.7-3.8 6.3-3.1 5.8.5zm-1.9-19.3c-3.8-.9-5.2 5.3-1.5 5.4 3 0 5-4.5 1.5-5.4z" class="buttons 1"/>
      </g>
      <g class="head--superhero-pow">
        <g class="headband 1">
          <path fill="#D11939" d="M140.043 104.076l-4.4 1.4-8.6-34.1 4.4-1.4 8.6 34.1z" class="Vector_11"/>
          <path fill="#D11939" d="M179.943 104.076l4.4 1.4 8.6-34.1-4.4-1.4-8.6 34.1z" class="Vector_12"/>
          <path fill="#D11939" d="M115.243 125.976s10.8-29.6 45.8-29.6c32.9 0 43.7 27.4 43.7 27.4s-18.6-20.7-42.9-20.8c-28.5 0-46.6 23-46.6 23z" class="band 1"/>
        </g>
        <g class="POW 2">
          <path fill="#FBC553" d="M226.343 50.576l17.2-11.1-26.2-1.4 4.4-22.9-26.2 14.1-3.1-15.5-14 11.4-7.8-16.1-12.7 15.9-13.1-10.6-6.3 11.4-25.3-16.7 3.3 25-22.1-11.6 6.2 17-28.5 1.5 22.5 13.6-20.3 13 29.4-4-9.5 19.7 22.4-12.1-2.6 26.8 28.2-27.1 7.9 17.3 12.1-20.3 9.8 17.7 14.6-14.4 5.5 21.1 10.4-13.3 10.1 16 4-17.9 19.8 2-12.2-12.4 23.6-5.3-21.5-10.8z" class="Vector_13"/>
          <path fill="#D11939" d="M226.343 50.576l17.2-11.1-26.2-1.4 4.4-22.9-26.2 14.1-3.1-15.5-14.1 11.4-7.7-16.1-12.7 15.9-13.1-10.6-6.3 11.4-25.3-16.7 3.2 25-22-11.6 6.2 17-28.5 1.5 22.5 13.7-20.3 13 29.4-4.1-9.5 19.7 22.4-12.1-2.5 26.8 28.2-27.1 7.8 17.3 12.1-20.3 9.9 17.7 14.6-14.5 5.5 21.2 10.4-13.3 10.1 15.9 4-17.8 19.8 2-12.3-12.4 23.6-5.3-21.5-10.8zm1.7 23.9l-13.7-2.5-3.3 13.2-7.3-12.7-10.6 13.3-5.3-19.4-15 13.8-10.6-17.7-12.1 18.2-7.5-16.5-24.5 23.8 3.2-23.9-19.3 10.3 6.3-14.8-22.4 3.5 16.5-8.8-21.2-10.8 23.7-1.1-5.6-13.7 19.6 8.4-1.4-21.1 20.5 14.1 7.6-10.4 13.2 9.9 11.4-14.6 7.5 14 12.1-9.9 3.6 15.2 23.4-13.2-2.4 19.9 19.5.8-11.5 9 14.9 8.4-17.1 6.3 7.8 9z" class="Vector_14"/>
          <g class="Group_2">
            <path fill="#0068D6" d="M187.543 71.676c-.1-.1-2-1.9-6.3-1.9-1.2 0-2.6.2-4 .5l-1.4.3.3-1.5c.5-2.8.9-6.1.9-7.9-1.1 1.6-2.9 4.8-4.3 7.6l-.7 1.5-1-1.3c-.1-.2-3-4-9-4-.9 0-1.8.1-2.7.2l-1.3.2 4.2-39.4 1.4 1.1s2.6 1.8 8 1.8c1.7 0 3.5-.2 5.4-.5l1.3-.2-1.4 17.5c1.6-1.8 2.8-2.7 3.6-2.8h.1c.5 0 1.6 0 3.1 5.2l9.7-17 .9.7c.1.1 6.6 5.2 12.3 5.2h1.7l-19.8 35.7-1-1z" class="Vector_15"/>
            <path fill="#fff" d="M163.043 27.876s2.7 2 8.6 2c1.6 0 3.5-.1 5.6-.5l-1.6 19.3s3.8-4.7 4.9-4.8c1.1 0 2.7 6.8 2.7 6.8l10.3-18.2s6.8 5.4 13 5.4l-18.3 33.1s-2.1-2.2-7.1-2.2c-1.2 0-2.6.1-4.2.5 0 0 1.7-9.7.5-9.9-1.2 0-5.7 9-5.7 9s-3.2-4.4-9.8-4.4c-.9 0-1.8.1-2.8.3l3.9-36.4zm-1.6-3.7l-.4 3.5-3.9 36.3-.3 2.7 2.6-.5c.8-.2 1.7-.2 2.5-.2 5.4 0 8.1 3.5 8.2 3.6l2 2.6 1.4-2.9c.6-1.3 1.3-2.6 2-3.9-.1 1.2-.3 2.4-.5 3.5l-.5 2.9 2.9-.6c1.3-.3 2.6-.4 3.7-.4 3.9 0 5.6 1.6 5.6 1.6l1.9 2 1.3-2.4 18.3-33.1 1.6-2.9h-3.4c-5.4 0-11.7-4.9-11.7-5l-1.8-1.4-1.2 2-8 14c-.7-2.1-1.6-3.7-3.3-3.7h-.2c-.3 0-1 .1-2.3 1.2l1.1-13.6.2-2.6-2.6.5c-1.8.3-3.6.5-5.2.5-5 0-7.4-1.6-7.4-1.6l-2.6-2.1z" class="Vector_16"/>
          </g>
          <g class="Group_3">
            <path fill="#0068D6" d="M149.343 69.476c-8.6 0-15.7-5.5-17.6-13.7-.9-4-.1-8.2 2.3-11.9 2.9-4.6 8-8 13.6-9.1 1.6-.3 3.2-.5 4.7-.5 8.2 0 14.4 4.8 16.2 12.5 1 4.4.1 9.3-2.6 13.5-2.9 4.5-7.4 7.7-12.4 8.7-1.5.4-2.9.5-4.2.5zm1.6-22.9c-.4 0-.7 0-1.1.1-1.3.3-2.6 1.2-3.5 2.6-.8 1.2-1.1 2.5-.8 3.5.5 2.1 3.1 3.4 5.4 3.4.4 0 .8 0 1.2-.1 1.1-.2 2.1-1 2.8-2 .8-1.2 1-2.7.8-3.9-.5-2.1-2.5-3.6-4.8-3.6z" class="Vector_17"/>
            <path fill="#fff" d="M152.243 35.376c7.6 0 13.5 4.2 15.3 11.7 2.1 9-4.6 19-14.3 21-1.3.3-2.6.4-3.9.4-8 0-14.8-5.2-16.6-12.9-2.1-9 5.4-17.8 15-19.8 1.5-.2 3.1-.4 4.5-.4zm-1.3 21.8c.5 0 .9 0 1.4-.1 3.2-.7 5-4.2 4.4-7.2-.6-2.5-3-4.3-5.7-4.3-.4 0-.8 0-1.3.1-3.2.7-5.8 4.4-5.1 7.3.6 2.6 3.5 4.2 6.3 4.2zm1.3-23.8c-1.6 0-3.3.2-4.9.5-5.8 1.2-11.2 4.8-14.2 9.6-2.5 3.9-3.4 8.4-2.4 12.6 2 8.6 9.5 14.4 18.6 14.4 1.4 0 2.9-.1 4.3-.4 5.3-1.1 10.1-4.4 13.1-9.1 2.8-4.4 3.8-9.6 2.7-14.3-1.9-8.2-8.5-13.3-17.2-13.3zm-1.3 21.8c-2.1 0-4-1.2-4.4-2.6-.2-.8.1-1.8.7-2.8.7-1.1 1.8-1.9 2.9-2.2.3-.1.6-.1.9-.1 1.8 0 3.4 1.1 3.8 2.7.2 1 0 2.2-.6 3.2-.5.9-1.3 1.4-2.2 1.6-.4.2-.8.2-1.1.2z" class="Vector_18"/>
          </g>
          <g class="Group_4">
            <path fill="#0068D6" d="M118.643 76.076c-8-14.1-11-41.6-11.1-42.8v-.5l.3-.3c6.2-6.6 17.1-11.4 26-11.4 7.9 0 13 3.6 14.5 10.2 1.6 6.8-1.4 13.3-8.7 18.8-4.1 3.1-8.5 5.1-10.4 5.9l6.9 17.7-1.7-.2c-.6-.1-1.2-.1-1.9-.1-6.1 0-12.6 3.1-12.6 3.1l-.8.4-.5-.8zm3.8-41.4c0 .8 0 2.7.5 5s1.4 4.1 1.9 5c2.1-.6 7.9-2.7 9.8-6.2.7-1.2.8-2.5.3-3.9-.6-1.8-1.9-2.6-4-2.6-3.3 0-7.2 1.9-8.5 2.7z" class="Vector_19"/>
            <path fill="#fff" d="M133.743 22.176c6.5 0 12 2.7 13.6 9.4 3.6 15.6-19.4 23.9-19.4 23.9l6.7 17c-.7-.1-1.3-.1-2-.1-6.4 0-13.1 3.2-13.1 3.2-8-14-11-42.4-11-42.4 5.9-6.3 16.5-11 25.2-11zm-9.4 23.7s14.3-3.6 11.5-11.6c-.9-2.5-2.8-3.3-5-3.3-4.2 0-9.4 3.1-9.4 3.1s-.3 2.4.5 5.8c.9 3.5 2.4 6 2.4 6zm9.4-25.7c-9.1 0-20.3 4.9-26.7 11.7l-.6.7.1.9c.1 1.2 3.1 29 11.2 43.2l.9 1.6 1.7-.8c.1 0 6.3-3 12.2-3 .6 0 1.2 0 1.8.1l3.3.4-1.2-3.1-5.9-15.2c2.2-1 6-2.8 9.7-5.6 7.6-5.8 10.7-12.6 9.1-19.9-1.7-7-7.3-11-15.6-11zm-10.3 15.1c1.8-.9 4.9-2.3 7.4-2.3 2.1 0 2.7 1 3.1 1.9.4 1.1.3 2.1-.2 3.1-1.4 2.6-5.7 4.5-8.4 5.4-.4-1-1-2.4-1.4-4-.4-1.8-.5-3.2-.5-4.1z" class="Vector_20"/>
          </g>
          <g class="Group_5">
            <path fill="#0068D6" d="M204.543 65.976c-.9-1.1-4.1-2.1-5.9-2.5l-1.4-.3 16-27.9.9 1.2c1.2 1.6 7.3 3.2 10.9 3.9l1.7.3-21.5 26.2-.7-.9z" class="Vector_21"/>
            <path fill="#fff" d="M213.443 37.176c1.9 2.5 11.5 4.3 11.5 4.3l-19.6 24c-1.5-1.8-6.4-2.8-6.4-2.8l14.5-25.5zm-.3-3.7l-1.5 2.6-14.5 25.5-1.4 2.4 2.7.5c2.1.4 4.7 1.4 5.3 2.1l1.5 1.9 1.6-1.9 19.6-24 2.1-2.6-3.3-.6c-4.7-.9-9.6-2.5-10.3-3.5l-1.8-2.4z" class="Vector_22"/>
          </g>
          <g class="Group_6">
            <path fill="#0068D6" d="M198.943 75.976s-2.4-2.4-5.2-2.4h-.2l-1.7.1 4.1-7.8.7.1c.5.1 5.3.9 6.8 2.9l.4.5-3.8 7.5-1.1-.9z" class="Vector_23"/>
            <path fill="#fff" d="M196.443 66.976s4.8.8 6.1 2.5l-2.9 5.7s-2.6-2.7-5.9-2.7h-.3l3-5.5zm-1.1-2.2l-.7 1.3-2.9 5.6-1.6 3.1 3.5-.2h.2c2 0 3.9 1.5 4.4 2.1l1.9 2 1.3-2.5 2.9-5.7.6-1.1-.7-1c-1.7-2.2-6.1-3.1-7.4-3.3l-1.5-.3z" class="Vector_24"/>
          </g>
        </g>
      </g>
      <g class="face--superhero-mask">
        <path fill="#0068D6" d="M199.852 128.896c-20.4-5.4-36 12.7-37.9 12.7-1.9 0-17.6-18.1-38-12.7-20.4 5.4-26 36.4-4.5 44.6 19.4 7.4 32.5-9.3 42.4-9.4 9.9.1 23 16.8 42.4 9.4 21.5-8.2 15.9-39.2-4.4-44.6zm-69.2 37.1c-14.8 0-14.3-25.1.8-26.5 15-1.4 23.8 8.7 23.8 12.6 0 5-12.2 13.8-24.6 13.9zm62.5 0c-12.4 0-24.5-8.8-24.5-13.9 0-3.9 8.8-13.9 23.8-12.6 15 1.4 15.5 26.5.7 26.5z" class="mask 1"/>
      </g>
      <g class="body--superhero-cape">
        <path fill="#D11939" d="M169.813 272.171s-23.6-3.4-22 22.9c0 0 26.1-2.6 22-22.9z" class="Vector_25"/>
        <path fill="#D11939" d="M168.413 272.171s23.6-3.5 22.1 22.8c0 .1-26.1-2.5-22.1-22.8z" class="Vector_26"/>
        <path fill="#D11939" d="M169.413 263.771c19.9-.7 30.9-4.9 30.9-4.9s6.4 7.6-.4 14.5c-9.8 9.8-30 2.1-30 2.1s-16.7 8.5-30-1.1c-7.8-5.7-3.2-14.9-3.2-14.9s12.9 5 32.7 4.3z" class="Vector_27"/>
        <g class="Group_7">
          <path fill="#D11939" d="M339.313 320.971v-32.3c-55.3-34.9-75.6-15.6-97.5-14.3-10.4.6-29.9-3.7-44-8v54.7h141.5v-.1z" class="Vector_28"/>
          <path fill="#D11939" d="M140.413 320.971v-57.6c-13.2 5.5-32.6 12.3-45.3 11.6-21-1.3-43.1-21.7-96.3 12v34h141.6z" class="Vector_29"/>
        </g>
      </g>
      <g class="face--astronaut-headset">
        <path fill="#112739" d="M117.8 129.849v29.2c0 .9.7 1.7 1.6 1.7h3.5c.9 0 1.6-.7 1.6-1.7v-22.2c0-.9.7-1.7 1.6-1.7h32.8c1.6 0 1.6 1.351 1.6 7.7 0 .9.7 1.7 1.6 1.7h3.5c.9 0 1.6-.7 1.6-1.7v-13c0-.9-.7-1.7-1.6-1.7h-46.3c-.8 0-1.5.7-1.5 1.7z" class="Vector_30"/>
        <path stroke="#112739" stroke-miterlimit="10" stroke-width="5" d="M105 167.949s-16.3 41.1-8.4 45.5c7.9 4.4 27.2 10.4 27.2 10.4" class="Vector_31"/>
        <path fill="#112739" d="M140.6 229.649c-1.3 4.4-7.2 6-13.5 4.2-6.3-1.8-11.3-3.3-9.1-10.8 2-7 6.9-6.4 13.2-4.6 6.3 1.8 10.6 6.8 9.4 11.2z" class="Vector_32"/>
        <path fill="#112739" d="M107 169.349c5.413 0 9.8-5.373 9.8-12s-4.387-12-9.8-12c-5.412 0-9.8 5.373-9.8 12s4.388 12 9.8 12z" class="Vector_33"/>
        <path stroke="#617889" stroke-miterlimit="10" stroke-width="3" d="M106 162.849c2.32 0 4.2-2.462 4.2-5.5s-1.88-5.5-4.2-5.5c-2.319 0-4.2 2.462-4.2 5.5s1.881 5.5 4.2 5.5z" class="Vector_34"/>
        <path stroke="#D1DDE5" stroke-linecap="round" stroke-linejoin="round" stroke-miterlimit="10" stroke-width="5" d="M162.5 150.449l-3.5 18.6c-.7 3.5-3.6 6.1-7 6.1h-22c-3.7 0-6.8-3-7.1-6.9" class="Vector_35"/>
        <path fill="#C24471" d="M121.4 133.949c1.05 0 1.9-.94 1.9-2.1 0-1.16-.85-2.1-1.9-2.1-1.049 0-1.9.94-1.9 2.1 0 1.16.851 2.1 1.9 2.1z" class="Vector_36"/>
        <path stroke="#112739" stroke-miterlimit="10" stroke-width="5" d="M110.2 149.849l11.2-16" class="Vector_37"/>
      </g>
      <g class="head--astronaut-helmet">
        <path stroke="#D1DDE5" stroke-miterlimit="10" stroke-width="5" d="M159.9 259.943c64.01 0 115.9-51.89 115.9-115.9s-51.89-115.9-115.9-115.9S44 80.033 44 144.043s51.89 115.9 115.9 115.9z" class="Vector_38"/>
        <path fill="#D1DDE5" d="M101.1 55.343c16.8-11.8 44.7-20.2 53.5-9.8 8.8 10.4 5.8 26.8-26.8 43s-41.6 20.7-49.1 6.9c-7.5-13.8 2.8-26.3 22.4-40.1z" class="Vector_39" opacity=".8"/>
        <path fill="#D1DDE5" d="M182.1 38.143c-7.3-2.1-19.1-2.9-20.9.9-1.8 3.8 8.8 15.2 13.8 17 5 1.7 24.5-2.6 23.6-7-.9-4.4-5.4-7.6-16.5-10.9z" class="Vector_40" opacity=".8"/>
      </g>
      <g class="head--einstein's-hair">
        <mask id="d" width="174" height="149" x="74" y="42" class="mask3" maskUnits="userSpaceOnUse">
          <path fill="#C1C1C1" d="M247.624 145.081c-4.3-1-7.6-9-10.4-22.2-.7-3.1-1.8-5.5-3.1-7.3 6.3-4.8 10.8-12.5 10.8-12.5s-4.8.7-12.1-3.8c-.4 1.8-1 3.6-1.7 5.1-1.8 4-5.6 8.4-9.8 12.4-1-3.3-2.9-5.9-5.1-7.8-2-1.7-4.3-2.8-6.3-3.2-5.5-2-10.9-2.2-13.9-2.2 1.8-9.5 5.2-22.9 9.3-27.8 3.1-3.7 9.3-5.4 15-6 .2-.4.3-.7.3-.7s-11.2-2.3-16 3.4c1.8-11.8 7-15.9 7-15.9s-6.4-3.7-16.4 3.3c-2.9 2.1-4.8 4.7-6 7.4-.2-.4-.4-.8-.5-1.2-7.8-16.2-21.9-11.8-31.2-10 2.2 1.6 3.6 4 3.6 6.8 0 2.9-1.5 5.5-3.9 7v18.2c-3.4-6.4-7.9-12.4-9.3-14.3v-3.4c-2.8-1.4-4.7-4.3-4.7-7.5 0-3.5 2.2-6.5 5.3-7.8-5.1-3.8-6.8-12.5-6.8-12.5s-9.6 1.6-11 16.2c-2-.6-4.2-.9-6.6-.9-13.7.3-20.2 8-22.5 11.9 5.7.7 11.7 2.3 14.7 6 4.1 5 7.5 18.6 9.3 28.1-2.6.3-5.6.8-8.6 1.9-2 .4-4.3 1.5-6.3 3.2-3.1 2.6-5.6 6.7-5.8 12-5.8-5-12-11.1-14.5-16.6-.6-1.3-1.1-2.8-1.5-4.3-3.3-.8-5.2-2.8-5.2-2.8s-2 13.1 11.3 19.2c-1.7 1.9-3.9 4.5-5.1 6.4-2.3 3.5-10.9 16.2-15.5 16.3 0 0 1.1 7.6 11 9.5-.6 1.8-1 3.9-.8 6.2.7 8 2.9 17.5-1 22.4 0 0 5.2 1.3 9.4-4.6 0 0 7.8 12.9 24.6 17.7 0 0-3.8-11.2-4.8-19.3 3.5 1.4 5.5-.8 5.5-.8s-3.6-6.6-5.6-17.2c-2-10.6 10.4-27.1 10.4-27.1s4-4.1 7.2-5.3c3.2-1.2 8.7-.7 13.6-8.9 0 0 3.1 3.6 8.2 3.7 5.1.1 6.4-1.6 6.4-1.6s2.7 2.7 8.7 2.7c6 0 8.2-2.3 8.2-2.3s1.7 1.5 5.5 1.1c3.8-.4 5.5-2.6 5.5-2.6 3.5 5.4 8.8 4.8 8.8 4.8h.2c1.4 2.6 3.5 6.2 5 7.7 2.5 2.4 6.1 14.6 3.6 20.9 0 0 2.4.7 4.5-.9 1 7.6-4.9 15.5 2.4 22.5.1.1-1.3 14.4-2.9 19 0 0 13.7-.9 20-13.5 2.7 4 6.9 4.8 6.9 4.8s3.1-12.5 3.4-17.1c.2-2.7-.1-7.2-.3-10.3 6.4-.8 9.6-5.6 9.6-5.6zm-72.9-61.4v4.7c-2.3-1.3-4.4-1-6.3 0v-4.7c-2.8-1.2-4.7-4-4.7-7.2 0-4.3 3.5-7.8 7.8-7.8s7.8 3.5 7.8 7.8c.1 3.2-1.9 6-4.6 7.2z" class="Vector_41"/>
        </mask>
        <g mask="url(#d)">
          <path fill="#C1C1C1" d="M247.624 145.081c-4.3-1-7.6-9-10.4-22.2-.7-3.1-1.8-5.5-3.1-7.3 6.3-4.8 10.8-12.5 10.8-12.5s-4.8.7-12.1-3.8c-.4 1.8-1 3.6-1.7 5.1-1.8 4-5.6 8.4-9.8 12.4-1-3.3-2.9-5.9-5.1-7.8-2-1.7-4.3-2.8-6.3-3.2-5.5-2-10.9-2.2-13.9-2.2 1.8-9.5 5.2-22.9 9.3-27.8 3.1-3.7 9.3-5.4 15-6 .2-.4.3-.7.3-.7s-11.2-2.3-16 3.4c1.8-11.8 7-15.9 7-15.9s-6.4-3.7-16.4 3.3c-2.9 2.1-4.8 4.7-6 7.4-.2-.4-.4-.8-.5-1.2-7.8-16.2-21.9-11.8-31.2-10 2.2 1.6 3.6 4 3.6 6.8 0 2.9-1.5 5.5-3.9 7v18.2c-3.4-6.4-7.9-12.4-9.3-14.3v-3.4c-2.8-1.4-4.7-4.3-4.7-7.5 0-3.5 2.2-6.5 5.3-7.8-5.1-3.8-6.8-12.5-6.8-12.5s-9.6 1.6-11 16.2c-2-.6-4.2-.9-6.6-.9-13.7.3-20.2 8-22.5 11.9 5.7.7 11.7 2.3 14.7 6 4.1 5 7.5 18.6 9.3 28.1-2.6.3-5.6.8-8.6 1.9-2 .4-4.3 1.5-6.3 3.2-3.1 2.6-5.6 6.7-5.8 12-5.8-5-12-11.1-14.5-16.6-.6-1.3-1.1-2.8-1.5-4.3-3.3-.8-5.2-2.8-5.2-2.8s-2 13.1 11.3 19.2c-1.7 1.9-3.9 4.5-5.1 6.4-2.3 3.5-10.9 16.2-15.5 16.3 0 0 1.1 7.6 11 9.5-.6 1.8-1 3.9-.8 6.2.7 8 2.9 17.5-1 22.4 0 0 5.2 1.3 9.4-4.6 0 0 7.8 12.9 24.6 17.7 0 0-3.8-11.2-4.8-19.3 3.5 1.4 5.5-.8 5.5-.8s-3.6-6.6-5.6-17.2c-2-10.6 10.4-27.1 10.4-27.1s4-4.1 7.2-5.3c3.2-1.2 8.7-.7 13.6-8.9 0 0 3.1 3.6 8.2 3.7 5.1.1 6.4-1.6 6.4-1.6s2.7 2.7 8.7 2.7c6 0 8.2-2.3 8.2-2.3s1.7 1.5 5.5 1.1c3.8-.4 5.5-2.6 5.5-2.6 3.5 5.4 8.8 4.8 8.8 4.8h.2c1.4 2.6 3.5 6.2 5 7.7 2.5 2.4 6.1 14.6 3.6 20.9 0 0 2.4.7 4.5-.9 1 7.6-4.9 15.5 2.4 22.5.1.1-1.3 14.4-2.9 19 0 0 13.7-.9 20-13.5 2.7 4 6.9 4.8 6.9 4.8s3.1-12.5 3.4-17.1c.2-2.7-.1-7.2-.3-10.3 6.4-.8 9.6-5.6 9.6-5.6zm-72.9-61.4v4.7c-2.3-1.3-4.4-1-6.3 0v-4.7c-2.8-1.2-4.7-4-4.7-7.2 0-4.3 3.5-7.8 7.8-7.8s7.8 3.5 7.8 7.8c.1 3.2-1.9 6-4.6 7.2z" class="Vector_42"/>
          <g class="Group_8">
            <path fill="#959595" d="M132.524 81.881c-12.7-10-21.3-.3-21.3-.3s7.8-.7 16.9 5c12.5 7.8 15.4 23 15.4 23s.4-18.7-11-27.7z" class="Vector_43"/>
            <path fill="#959595" d="M166.924 111.481c-4.3.2-10.9-13.8-10.9-13.8s1.4 5 1.7 10.7c.2 5.6-3.6 7.9-3.6 7.9s7.9 3.4 10.2 3.6c2.3.2 12.6-4.4 12.6-4.4.8-7.4-3.8-16.4-3.8-16.4.4 5.1-1.9 12.2-6.2 12.4z" class="Vector_44"/>
            <path fill="#959595" d="M194.624 116.181s3 .9 6.5 4.9 4.9 10.4 4.9 10.4 2.6-10.3-1.7-15.6c-4.4-5.3-9.7.3-9.7.3z" class="Vector_45"/>
            <path fill="#959595" d="M222.024 153.481c-1 2.4-3.4 18.4-3.4 18.4-4.9-10.2-3.6-33.1-3.6-33.1-3.1 4.3-6.2 6.3-6.2 6.3s-1.6 9.2-1.5 9.6c.1.4-6.6 31.9-6.6 31.9s4.7 7.5 9.4 9 9.2-2.4 9.2-2.4l7-7 7.2-2.7c-6.7-5.4-11.5-30-11.5-30z" class="Vector_46"/>
            <path fill="#959595" d="M96.824 116.381c8.2-2.4 12.7-12.6 12.7-12.6s-6.2 4.3-13.5 5.1c-7.4.8-11.9-5.1-11.9-5.1s4.5 15.1 12.7 12.6z" class="Vector_47"/>
            <path fill="#959595" d="M99.924 128.481s-7.4 8.2-12.7 11c-5.3 2.7-12.8-.3-12.8-.3v9.1l10.9.6s8.7-2.9 14.6-20.4z" class="Vector_48"/>
            <path fill="#959595" d="M130.424 118.381c-3.5-.1-9.1-1.7-12.9 1.5-3.7 3.2-9.5 12.5-9.5 12.5l7.3-3.9s-2.6 8.1-.7 14.8l25-23.6-.3-2.6c0-.1-5.5 1.4-8.9 1.3z" class="Vector_49"/>
            <path fill="#959595" d="M110.524 161.781c-1.6-4.8-2.4-11.7-2.4-11.7s-6 11.9 3.1 20.2l9.8 4.9-2.6-4.9c-.1 0-6.3-3.7-7.9-8.5z" class="Vector_50"/>
            <path fill="#959595" d="M119.024 191.381c-11.9-8.6-14.9-28.8-14.9-28.8-1.6 3.6-3.4 8.8-3.4 8.8l-6.7-17.4s-2.4 10.8-3.5 14.9-6.9 8.4-6.9 8.4l1.7 7.9 16.9 12.4s22.5-2.1 16.8-6.2z" class="Vector_51"/>
          </g>
          <g class="Group_9">
            <path fill="#E4E4E4" d="M211.524 56.581s-6.4-3.7-16.4 3.3c-2.9 2.1-4.8 4.7-6 7.4-.2-.4-.4-.8-.5-1.2-10.2-21.2-31.3-7.1-38-9.7-6.7-2.7-8.9-13.8-8.9-13.8s-5 25.3 12.1 28.7c17.1 3.4 27.6 4.3 30.3 36.4 0 0 11.5-16.1 7-34.6 3.5-5.3 9.7-12.2 20.4-16.5z" class="Vector_52"/>
            <path fill="#E4E4E4" d="M206.624 105.781s4.3 6.4 6.9 15.7c2.4 8.8.6 18.7.6 18.7s3.5-5.1 5.4-9c8.3-17.4-6.9-27-12.9-25.4z" class="Vector_53"/>
            <path fill="#E4E4E4" d="M237.224 122.881c-2.8-13.2-13.9-12.9-13.9-12.9 4.9 1.5 3.4 17.1 8.7 27.7 5.3 10.6 15.6 7.4 15.6 7.4-4.3-1-7.6-9-10.4-22.2z" class="Vector_54"/>
            <path fill="#E4E4E4" d="M220.524 69.081s-11.2-2.3-16 3.4c-4.8 5.6-3.9 16.1-3.9 16.1s6-13 19.9-19.5z" class="Vector_55"/>
            <path fill="#E4E4E4" d="M124.124 57.981c-18.3.4-23.6 14-23.6 14s13.1-7.2 26.5-4.8c13.4 2.4 23.4 12 23.4 12s-8.1-21.6-26.3-21.2z" class="Vector_56"/>
            <path fill="#E4E4E4" d="M109.824 84.781c-2.4.9-4.2 2.4-5.5 4.2-1.6 3.5-2.7 6.6-5.6 8.8-.6.5-1.3.9-2.2 1.3-7.7 3.6-12.9-1.9-12.9-1.9s5.6 11.1 19 6.2c9.7-3.5 6-10.4 22.7-14.4.1.1-8.3-6.8-15.5-4.2z" class="Vector_57"/>
            <path fill="#E4E4E4" d="M244.924 103.081s-8.3 1.2-19.6-9.6c-2.9-2.8-5.7-4.7-8.3-6.1-.5-.1-1-.1-1.5-.2-8.2-.5-12.1 6.5-12.1 6.5 9 .1 12 9.6 23.8 12.7 11.8 3.2 17.7-3.3 17.7-3.3z" class="Vector_58"/>
          </g>
        </g>
      </g>
      <g class="face--einstein's-moustache">
        <mask id="e" width="77" height="26" x="128" y="174" class="mask4" maskUnits="userSpaceOnUse">
          <path fill="#C1C1C1" d="M164.424 178.381s-13.2-4.9-19.7-2.1c-6.5 2.8-9.2 10.6-11.8 13-2.6 2.4-4.8 1.9-4.4 3.1 1 2.9 8.7 5.3 12.4 4.8 3.7-.5 5.5-2.9 5.5-2.9s-2.3 3.1 1.4 4.8c3.7 1.7 12.8-3.8 12.8-3.8s0 3.6 3.1 4.1c3.1.5 4.5-4.3 4.5-4.3s5.7 6.6 11.1 3.8c1.8-.9 0-2.6 0-2.6s7.8 2 12.1.2.9-4.1.9-4.1 7.8 2.5 10.9-.4c3.1-2.9 1.6-3.6-1-4.4-4-1.3-8.1-11.2-17-12.6-13.3-2.1-20.8 3.4-20.8 3.4z" class="Vector_59"/>
        </mask>
        <g mask="url(#e)">
          <path fill="#C1C1C1" d="M164.424 178.381s-13.2-4.9-19.7-2.1c-6.5 2.8-9.2 10.6-11.8 13-2.6 2.4-4.8 1.9-4.4 3.1 1 2.9 8.7 5.3 12.4 4.8 3.7-.5 5.5-2.9 5.5-2.9s-2.3 3.1 1.4 4.8c3.7 1.7 12.8-3.8 12.8-3.8s0 3.6 3.1 4.1c3.1.5 4.5-4.3 4.5-4.3s5.7 6.6 11.1 3.8c1.8-.9 0-2.6 0-2.6s7.8 2 12.1.2.9-4.1.9-4.1 7.8 2.5 10.9-.4c3.1-2.9 1.6-3.6-1-4.4-4-1.3-8.1-11.2-17-12.6-13.3-2.1-20.8 3.4-20.8 3.4z" class="Vector_60"/>
          <path fill="#E4E4E4" d="M126.624 191.481s1.6 3.2 8.3 1.8c6.7-1.4 16.8-8.3 16.8-8.3l-5.7 10s1.1 2.5 6.8-.9c5.7-3.4 8.3-7.1 8.3-7.1s-1.8 7.5 1.9 7.9c3.7.4 5.7-7.9 5.7-7.9s3.9 7.4 7.2 6.2c3.3-1.2-1.5-6.7-1.5-6.7s7.3 6 12.5 5.2c2.1-.3 1.8-2 .7-3.9-1.4-2.5-4.2-5.2-4.2-5.2s12.5 10.5 22.7 7.3-24.1-19.4-24.1-19.4l-42.1 1.2-13.3 19.8z" class="Vector_61"/>
        </g>
      </g>
      <g class="body--einstein's-coat">
        <g class="Group_10">
          <mask id="f" width="92" height="73" x="125" y="257" class="mask5" maskUnits="userSpaceOnUse">
            <path fill="#AA5C3A" d="M136.024 262.281s-11 43.1-10.1 67h90.3s-4.2-42.9-13.2-71.9c0 0-15.1 19.1-34.9 19.1-19.8 0-32.1-14.2-32.1-14.2z" class="Vector_62"/>
          </mask>
          <g mask="url(#f)">
            <path fill="#AA5C3A" d="M136.024 262.281s-11 43.1-10.1 67h90.3s-4.2-42.9-13.2-71.9c0 0-15.1 19.1-34.9 19.1-19.8 0-32.1-14.2-32.1-14.2z" class="Vector_63"/>
            <path stroke="#814227" stroke-miterlimit="10" stroke-width="5" d="M143.424 267.081s-6.8 42.8-3.8 66.5" class="Vector_64"/>
            <path stroke="#814227" stroke-miterlimit="10" stroke-width="5" d="M160.524 280.581s-.7 16.6-.9 23.5c-.2 6.9 0 29.3 0 29.3" class="Vector_65"/>
            <path stroke="#814227" stroke-miterlimit="10" stroke-width="5" d="M177.224 272.781s1.6 18.2 3.2 31.8c1.6 13.6 1 27.2 1 27.2" class="Vector_66"/>
            <path stroke="#814227" stroke-miterlimit="10" stroke-width="5" d="M192.724 262.981s7.3 26.2 8.8 39.8c1.6 13.6 1.2 30 1.2 30" class="Vector_67"/>
            <path stroke="#814227" stroke-miterlimit="10" stroke-width="5" d="M130.724 274.381s22 5.5 37.3 4.7c15.4-.8 42.9-7.5 42.9-7.5" class="Vector_68"/>
            <path stroke="#814227" stroke-miterlimit="10" stroke-width="5" d="M128.124 287.781s24.3 4.7 42.7 2.7c18.4-2 41.9-5 41.9-5" class="Vector_69"/>
            <path stroke="#814227" stroke-miterlimit="10" stroke-width="5" d="M125.824 300.381s28.4 7.5 48.1 5.9c19.8-1.6 41.5-5.9 41.5-5.9" class="Vector_70"/>
            <path stroke="#814227" stroke-miterlimit="10" stroke-width="5" d="M125.124 316.881s19.4 7.7 45.9 6.7 46.3-3.7 46.3-3.7" class="Vector_71"/>
            <path fill="#814227" d="M182.924 273.081c0 5.4-5.5 9.7-12.4 9.7s-12.4-4.4-12.4-9.7c0-5.4 4.9.3 11.7.3 6.8 0 13.1-5.6 13.1-.3z" class="Vector_72"/>
          </g>
        </g>
        <path fill="#C1C1C1" d="M158.324 272.281l6.9-6.2 5.3 8.2 2.6-8.2 10.6 4.6s-4.3 7.4-13.1 6.6c-8.8-.8-12.3-5-12.3-5z" class="Vector_73"/>
        <path fill="#E4E4E4" d="M135.124 260.181s.6-4.1 2.9-3.1c5.7 2.5 15.6 7.4 27.1 7.3 0 0 3.7 4.1 5.4 8.2 0 0 1.3-6.5 2.6-7.8 0 0 17.9-6.2 28.8-10.4 1.6-.6 2.8 3.8 2.8 3.8s-14.5 17.6-20.6 22.1c0 0-4.4-1.5-10.4-12.8 0 0-2.3 8-3.2 8.6-.9.6-4.7-8-4.7-8s-4.1 11.1-7.9 14.3c0-.1-8.6.1-22.8-22.2z" class="Vector_74"/>
      </g>
      <g class="body--rockstar-guitar">
        <g class="Group_11">
          <path fill="#47ED87" d="M140.479 252.729s-19 43-20.8 56.7h7.5l13.3-36.3v-20.4z" class="Vector_75"/>
          <path fill="#fff" d="M140.479 260.229l-19.5 48.2 2 .2 17.5-41.3v-7.1z" class="Vector_76"/>
        </g>
        <g class="strap 1">
          <path fill="#47ED87" d="M196.179 252.529s14.5 15.6 14.8 40.4l6.9-.3s3.4-24.9-14.9-39.7c.1 0-5.6-2.7-6.8-.4z" class="Vector_77"/>
          <path fill="#fff" d="M216.179 292.129c2-23.9-15.3-40-15.3-40s-.4-.2-1.1-.4c-.7-.2-1.4-.1-1.4-.1s15.8 15.9 14.3 39.9l3.5.6z" class="Vector_78"/>
        </g>
        <g class="electric 1">
          <path fill="#47ED87" d="M136.779 284.629c5.3-3.3 14.1-6.6 20.2-6.3 2.4.1 10.5-2.8 14-5 15.2-9.6 17.3-20.7 29.6-26 9.5-4.2 14.4.1 14.1 3.9-.4 4.6-13.6 7.8-10.6 19.3s9.8 10 9.8 10l-4.7 18.3s-.4 8.4 5 12.3c8.2 5.8 15.8-.9 18.6 2.2 2.8 3 .7 12.6-8.9 17.7s-12.2-1.1-22.1 4.1h-.1c-3.1 1.7-5.5 4.5-6.7 7.8-2.3 6.6-6.5 12.1-12.4 15.8-16.5 10.2-40.1 11.3-56.5-15.2-12.6-20.5-8.9-46.7 10.7-58.9z" class="Vector_79"/>
          <path fill="#7F4418" d="M197.079 288.929l7.5 12.1c.6 1 1.9 1.4 2.7.8l52.9-36.3-3.3-5.4-3.3-5.4-56 31.3c-1 .6-1.2 1.9-.5 2.9z" class="Vector_80"/>
          <path fill="#fff" d="M203.679 308.829c2.3-1.4 2.9-4.4 1.5-6.6l-8.9-14.4c-1.4-2.3-4.4-2.9-6.6-1.5-2.3 1.4-2.9 4.4-1.5 6.6l8.9 14.4c1.4 2.2 4.4 2.9 6.6 1.5z" class="Vector_81"/>
          <path fill="#fff" d="M187.979 318.629c2.3-1.4 2.9-4.4 1.5-6.6l-8.9-14.4c-1.4-2.3-4.4-2.9-6.6-1.5-2.3 1.4-2.9 4.4-1.5 6.6l8.8 14.3c1.4 2.3 4.4 3 6.7 1.6z" class="Vector_82"/>
          <path fill="#7F4418" d="M162.679 335.229c3.5-2.2 4.6-6.7 2.4-10.2l-7-11.3c-2.2-3.5-6.7-4.6-10.2-2.4-3.5 2.2-4.6 6.7-2.4 10.2l7 11.3c2.2 3.5 6.8 4.5 10.2 2.4z" class="Vector_83"/>
          <g class="Group_12">
            <path fill="#fff" d="M152.079 320.529a2.4 2.4 0 10-.001-4.801 2.4 2.4 0 00.001 4.801z" class="Vector_84"/>
          </g>
          <g class="Group_13">
            <path fill="#E4F2FF" d="M286.879 241.229a3.9 3.9 0 100-7.8 3.9 3.9 0 000 7.8z" class="Vector_85"/>
            <path fill="#E4F2FF" d="M274.579 244.229a3.9 3.9 0 100-7.8 3.9 3.9 0 000 7.8z" class="Vector_86"/>
            <path fill="#E4F2FF" d="M262.179 246.929a3.9 3.9 0 100-7.8 3.9 3.9 0 000 7.8z" class="Vector_87"/>
            <path fill="#47ED87" d="M252.079 247.229c2.4-3.4 33.9-14.3 44.8-9.7 10.9 4.5 4.9 12.9-3.2 13.4-8.1.5-20.8 18-27.5 19.8-4.3 1.2-18.3-17.7-14.1-23.5z" class="Vector_88"/>
            <path fill="#fff" d="M287.079 243.029a1.7 1.7 0 100-3.4 1.7 1.7 0 000 3.4z" class="Vector_89"/>
            <path fill="#fff" d="M274.679 245.529a1.7 1.7 0 100-3.4 1.7 1.7 0 000 3.4z" class="Vector_90"/>
            <path fill="#fff" d="M262.879 248.829a1.7 1.7 0 100-3.4 1.7 1.7 0 000 3.4z" class="Vector_91"/>
          </g>
        </g>
      </g>
      <g class="face--rockstar-glasses">
        <path fill="#E11485" d="M179.398 183c-.362 0-.603-.149-.965-.298-.845-.448-1.449-1.343-1.569-2.536l-1.57-17.304-11.467-14.767c-.603-.746-.844-1.79-.603-2.834.241-1.045.845-1.79 1.569-2.238l12.915-5.668 9.536-23.27c.362-1.044 1.207-1.641 2.173-1.641.965 0 1.81.597 2.172 1.641l8.932 19.69 14.002 1.044c.845 0 1.69.746 2.052 1.641.362 1.044.362 2.237-.121 3.132l-7.966 14.619 2.897 21.629c.121 1.044-.242 2.237-.845 2.834-.724.746-1.569.895-2.414.448l-16.054-7.459-11.105 10.74c-.482.299-1.086.597-1.569.597zm-9.294-35.8l9.415 12.082c.362.448.603 1.194.724 1.79l1.087 12.829 8.69-8.354c.724-.596 1.569-.895 2.414-.447l13.398 6.265-2.293-17.602c-.121-.746 0-1.641.362-2.237l6.035-11.039-10.984-.746c-.845 0-1.569-.596-2.052-1.64l-7.363-16.11-7.845 19.242c-.242.746-.845 1.193-1.449 1.492l-10.139 4.475z" class="Vector_92"/>
        <path fill="#E11485" d="M187.244 114.085s2.173-4.475 4.708-5.072c3.259-.597 9.897 19.541 11.225 20.287 1.328.746 19.433-4.177 21.123-.895 1.569 2.983-8.69 22.972-8.69 22.972s-.845 1.193-.966 1.79c-.121.596.241 3.43.241 3.43l4.949 21.779s.483 2.536-.845 3.729c-1.328 1.193-14.122-4.624-14.122-4.624s4.104.149 4.225-1.939c.12-2.089-2.897-22.823-2.897-22.823s8.449-13.127 8.087-14.469c-.362-1.194-14.847-1.79-14.847-1.79l-12.191-22.375z" class="Vector_93"/>
        <path fill="#E11485" d="M143.911 182.254l-11.105-10.74-16.053 7.458c-.845.448-1.811.15-2.414-.447-.724-.746-1.087-1.79-.845-2.834l2.897-21.629-7.967-14.619c-.483-.895-.603-2.088-.12-3.132.362-1.045 1.207-1.641 2.052-1.641l14.001-1.044 8.932-19.69c.483-1.045 1.328-1.641 2.173-1.641.966 0 1.811.746 2.173 1.641l9.535 23.27 12.916 5.668c.845.298 1.448 1.193 1.569 2.237.241 1.045 0 2.089-.604 2.835l-11.467 14.767-1.569 17.304c-.12 1.044-.724 2.088-1.569 2.535-.362.15-.603.299-.966.299-.603.149-1.207-.149-1.569-.597zm.604-39.38c-.604-.298-1.087-.746-1.449-1.492l-7.845-19.242-7.363 16.11c-.362.895-1.207 1.491-2.052 1.641l-10.984.745 6.035 11.039c.362.597.483 1.492.362 2.237l-2.293 17.602 13.398-6.265c.845-.447 1.69-.149 2.414.448l8.69 8.353 1.087-12.828c.121-.746.241-1.343.724-1.79l9.415-12.083-10.139-4.475z" class="Vector_94"/>
        <path fill="#E11485" d="M137.514 114.085s-2.173-4.475-4.708-5.072c-3.259-.597-9.897 19.541-11.225 20.287-1.328.746-19.433-4.177-21.123-.895-1.57 2.983 8.69 22.972 8.69 22.972s.845 1.193.966 1.79c.121.596-.241 3.43-.241 3.43l-4.949 21.779s-.483 2.536.845 3.729c1.328 1.193 14.122-4.624 14.122-4.624s-4.104.149-4.224-1.939c-.121-2.089 2.896-22.823 2.896-22.823s-8.449-13.127-8.087-14.469c.362-1.194 14.847-1.79 14.847-1.79l12.191-22.375z" class="Vector_95"/>
        <path fill="#E11485" d="M165.517 143.918h-6.397v3.878h6.397v-3.878z" class="Vector_96"/>
      </g>
      <g class="head--rockstar-sparkles">
        <g class="right 1_2">
          <path fill="#fff" d="M190.379 43.829c-.1 0-.2-.1-.3-.2-.2-.2-.3-.6-.2-.9l1.4-4.9-1.9-5.7c-.1-.3-.1-.6.1-.9.2-.2.4-.4.7-.4l4.5.4 5.4-4.9c.2-.2.6-.3.8-.1.3.1.5.4.5.8l.6 6.6 4.1 2.3c.3.1.4.4.4.8 0 .3-.1.6-.4.8l-4 2.8-1.5 6.2c-.1.3-.3.6-.6.6-.3.1-.6 0-.8-.2l-4.1-4.4-4.5 1.3c.1.1-.1 0-.2 0z" class="Vector_97"/>
          <path fill="#fff" d="M262.779 117.129c-.1-.1-.1-.3-.2-.4-.1-.4 0-.8.3-1.1l4.2-4.4 1-7.4c.1-.4.3-.7.6-.9.3-.2.7-.1 1 .1l4.7 3.4 8.5-1.8c.4-.1.8.1 1 .4.2.3.3.8.1 1.1l-2.9 7.6 3.2 5.2c.2.3.2.8.1 1.1-.2.4-.5.6-.9.6l-5.8.4-5 5.8c-.3.3-.6.4-1 .3-.4-.1-.6-.4-.7-.8l-2.1-7.4-5.6-1.6c-.2.1-.4 0-.5-.2z" class="Vector_98"/>
          <path fill="#fff" d="M248.579 60.53l-1.4-2.3-3 .1c-.2 0-.3-.1-.4-.2-.1-.1-.1-.3 0-.5l1.5-3-.6-2.7c0-.2 0-.3.1-.5.1-.1.3-.2.4-.1l2.4.7 2.4-2.4c.1-.1.3-.2.4-.1.2.1.3.2.3.4l.5 4.1 1.9 1.7c.1.1.2.3.2.4 0 .2-.1.3-.2.4l-2.6 1.5-1.1 2.5c-.1.2-.2.3-.4.3h-.2c-.1-.1-.2-.2-.2-.3z" class="Vector_99"/>
          <path fill="#fff" d="M260.579 84.83h-.2c-.2 0-.3-.1-.4-.3l-1.1-2.5-2.6-1.5c-.1-.1-.2-.2-.2-.4s0-.3.2-.4l1.9-1.7.5-4.1c0-.2.1-.3.3-.4.2-.1.3 0 .4.1l2.4 2.4 2.4-.7c.2 0 .3 0 .4.1.1.1.2.3.1.5l-.6 2.7 1.5 3c.1.2.1.3 0 .5-.1.1-.2.2-.4.2l-3-.1-1.4 2.3c-.1.2-.2.2-.2.3z" class="Vector_100"/>
          <path fill="#fff" d="M176.079 42.029c-2.1 0-3.1.6-4.3 2.6-.3.5-1 .3-1-.3 0-2.3-.6-3.5-2.4-4.7-.5-.3-.3-1.1.3-1.1 2.1 0 3.1-.6 4.3-2.6.3-.5 1-.3 1 .3 0 2.3.6 3.5 2.4 4.7.4.3.2 1.1-.3 1.1z" class="Vector_101"/>
          <path fill="#fff" d="M167.479 26.23c1.105 0 2-.941 2-2.1 0-1.16-.895-2.1-2-2.1s-2 .94-2 2.1c0 1.159.895 2.1 2 2.1z" class="Vector_102"/>
          <path fill="#fff" d="M212.679 50.23c1.105 0 2-.941 2-2.1 0-1.16-.895-2.1-2-2.1s-2 .94-2 2.1c0 1.159.895 2.1 2 2.1z" class="Vector_103"/>
          <path fill="#fff" d="M226.579 46.03c.773 0 1.4-.672 1.4-1.5 0-.83-.627-1.5-1.4-1.5-.773 0-1.4.67-1.4 1.5 0 .828.627 1.5 1.4 1.5z" class="Vector_104"/>
          <path fill="#fff" d="M263.279 98.53c.773 0 1.4-.672 1.4-1.5 0-.83-.627-1.5-1.4-1.5-.773 0-1.4.67-1.4 1.5 0 .828.627 1.5 1.4 1.5z" class="Vector_105"/>
          <path fill="#fff" d="M268.679 139.729c.773 0 1.4-.672 1.4-1.5s-.627-1.5-1.4-1.5c-.773 0-1.4.672-1.4 1.5s.627 1.5 1.4 1.5z" class="Vector_106"/>
          <path fill="#fff" d="M280.879 141.529c1.657 0 3-1.477 3-3.3 0-1.822-1.343-3.3-3-3.3s-3 1.478-3 3.3c0 1.823 1.343 3.3 3 3.3z" class="Vector_107"/>
          <path fill="#fff" d="M236.079 61.629c.773 0 1.4-.671 1.4-1.5 0-.828-.627-1.5-1.4-1.5-.773 0-1.4.672-1.4 1.5 0 .829.627 1.5 1.4 1.5z" class="Vector_108"/>
          <path fill="#fff" d="M169.779 59.629c.6 2 .8 4 .9 6 .1 2 0 4-.1 5.9-.2 2-.5 3.9-.9 5.8-.5 1.9-1 3.9-2 5.7-.6-2-.8-4.1-.9-6-.1-2 0-4 .1-5.9.2-2 .5-3.9.9-5.8.5-1.9 1-3.8 2-5.7z" class="Vector_109"/>
          <path fill="#fff" d="M184.779 45.83c.1 3.6-.2 7.1-.6 10.6-.4 3.5-1 6.9-1.6 10.3-.7 3.4-1.5 6.8-2.4 10.2-.9 3.4-2 6.7-3.4 9.9-.1-3.6.2-7.1.6-10.6.4-3.5 1-6.9 1.6-10.3.7-3.4 1.5-6.8 2.4-10.2.9-3.4 2-6.7 3.4-9.9z" class="Vector_110"/>
          <path fill="#fff" d="M201.079 59.629c-.5 2.7-1.3 5.2-2.1 7.7-.9 2.5-1.9 4.8-3.1 7.2-1.1 2.3-2.4 4.6-3.7 6.8-1.4 2.2-2.9 4.3-4.7 6.2.5-2.7 1.3-5.2 2.1-7.7.9-2.5 1.9-4.8 3.1-7.2 1.1-2.3 2.4-4.6 3.8-6.8 1.3-2.1 2.8-4.3 4.6-6.2z" class="Vector_111"/>
          <path fill="#fff" d="M221.679 55.229c-1.2 3.4-2.6 6.5-4.2 9.6-1.6 3.1-3.2 6-5 8.9-1.8 2.9-3.7 5.7-5.7 8.4s-4.1 5.4-6.5 7.8c1.2-3.4 2.6-6.5 4.2-9.6 1.6-3.1 3.2-6 5-8.9 1.8-2.9 3.7-5.7 5.7-8.4 2-2.8 4.1-5.4 6.5-7.8z" class="Vector_112"/>
          <path fill="#fff" d="M262.979 107.729c-2.9 1.7-5.8 3-8.8 4.3-3 1.2-6 2.2-9.1 3.2-3.1.9-6.2 1.7-9.3 2.3-3.1.6-6.3 1.1-9.6 1.2 2.9-1.7 5.8-3 8.8-4.3 3-1.2 6-2.2 9.1-3.2 3.1-.9 6.2-1.7 9.3-2.3 3.1-.6 6.3-1.1 9.6-1.2z" class="Vector_113"/>
          <path fill="#fff" d="M248.279 75.229c-2 2.8-4.2 5.4-6.5 7.8-2.3 2.4-4.7 4.7-7.2 6.9s-5 4.3-7.7 6.2c-2.7 2-5.4 3.8-8.3 5.4 2-2.8 4.2-5.4 6.5-7.8 2.3-2.4 4.7-4.7 7.2-6.9s5-4.3 7.7-6.2c2.6-2 5.3-3.8 8.3-5.4z" class="Vector_114"/>
          <path fill="#fff" d="M225.279 77.43c-.8 2-1.8 3.7-2.9 5.3-1.1 1.6-2.3 3.1-3.6 4.4-1.3 1.4-2.7 2.7-4.1 3.8-1.5 1.2-3 2.2-4.9 3 .8-2 1.8-3.7 2.9-5.3 1.1-1.6 2.3-3.1 3.6-4.4 1.3-1.4 2.7-2.7 4.1-3.8 1.5-1.1 3.1-2.2 4.9-3z" class="Vector_115"/>
          <path fill="#fff" d="M243.579 100.229c-1.4 1.5-2.9 2.6-4.5 3.6s-3.2 1.8-4.9 2.5c-1.7.7-3.4 1.3-5.2 1.7-1.8.4-3.6.7-5.5.6 1.4-1.5 2.9-2.6 4.5-3.6s3.2-1.8 4.9-2.5c1.7-.7 3.4-1.3 5.2-1.7 1.7-.4 3.5-.7 5.5-.6z" class="Vector_116"/>
          <path fill="#fff" d="M253.279 125.529c-1.7 1-3.5 1.6-5.2 2.1-1.8.5-3.5.8-5.3 1-1.8.2-3.6.2-5.4.1-1.8-.1-3.6-.4-5.5-1 1.7-1 3.5-1.6 5.2-2.1 1.8-.5 3.5-.8 5.3-.9 1.8-.2 3.6-.2 5.4-.1 1.8 0 3.6.2 5.5.9z" class="Vector_117"/>
          <path fill="#fff" d="M261.879 138.229c-2.3.8-4.6 1.1-6.9 1.3-2.3.2-4.6.3-6.8.2-2.3-.1-4.5-.3-6.8-.7-2.3-.4-4.5-.9-6.8-1.8 2.3-.8 4.6-1.1 6.9-1.3 2.3-.2 4.6-.3 6.8-.2 2.3.1 4.5.3 6.8.7 2.3.4 4.5.9 6.8 1.8z" class="Vector_118"/>
        </g>
        <g class="left 1_2">
          <path fill="#fff" d="M133.879 43.829l-4.5-1.3-4.1 4.4c-.2.2-.5.3-.8.2-.3-.1-.5-.3-.6-.6l-1.5-6.2-4-2.8c-.3-.2-.4-.5-.4-.8 0-.3.2-.6.4-.8l4.1-2.3.8-6.6c0-.3.2-.6.5-.8.3-.1.6-.1.8.1l5.4 4.9 4.5-.4c.3 0 .6.1.7.4.2.2.2.6.1.9l-1.9 5.7 1.4 4.9c.1.3 0 .7-.2.9-.1.1-.2.2-.3.2 0 0-.2.1-.4 0z" class="Vector_119"/>
          <path fill="#fff" d="M61.479 117.529l-5.6 1.6-2.1 7.4c-.1.4-.4.7-.7.8-.4.1-.7 0-1-.3l-5-5.8-5.8-.5c-.4 0-.7-.3-.9-.6-.2-.4-.1-.8.1-1.1l3.2-5.2-2.9-7.6c-.1-.4-.1-.8.1-1.1.2-.3.6-.5 1-.4l8.5 1.8 4.7-3.4c.3-.2.7-.2 1-.1.3.2.5.5.6.9l1 7.4 4.2 4.4c.3.3.4.7.3 1.1 0 .1-.1.3-.2.4-.1.1-.3.2-.5.3z" class="Vector_120"/>
          <path fill="#fff" d="M75.979 60.73h-.2c-.2 0-.3-.1-.4-.3l-1-2.4-2.6-1.5c-.1-.1-.2-.2-.2-.4s0-.3.2-.4l1.9-1.7.5-4.1c0-.2.1-.3.3-.4.2-.1.3 0 .4.1l2.4 2.4 2.4-.7c.2 0 .3 0 .4.1.1.1.2.3.1.5l-.6 2.7 1.5 3c.1.2.1.3 0 .5-.1.1-.2.2-.4.2l-3-.1-1.4 2.3c-.1.1-.2.2-.3.2z" class="Vector_121"/>
          <path fill="#fff" d="M63.979 84.63l-1.4-2.3-3 .1c-.2 0-.3-.1-.4-.2-.1-.1-.1-.3 0-.5l1.5-3-.6-2.7c0-.2 0-.3.1-.5.1-.1.3-.2.4-.1l2.4.7 2.4-2.4c.1-.1.3-.2.4-.1.2.1.3.2.3.4l.5 4.1 1.9 1.7c.1.1.2.3.2.4 0 .2-.1.3-.2.4l-2.6 1.4-1.1 2.5c-.1.2-.2.3-.4.3h-.2c0-.1-.1-.1-.2-.2z" class="Vector_122"/>
          <path fill="#fff" d="M148.679 42.029c2.1 0 3.1.6 4.3 2.6.3.5 1 .3 1-.3 0-2.3.6-3.5 2.4-4.7.5-.3.3-1.1-.3-1.1-2.1 0-3.1-.6-4.3-2.6-.3-.5-1-.3-1 .3 0 2.3-.6 3.5-2.4 4.7-.4.3-.2 1.1.3 1.1z" class="Vector_123"/>
          <path fill="#fff" d="M157.279 26.23c1.105 0 2-.941 2-2.1 0-1.16-.895-2.1-2-2.1s-2 .94-2 2.1c0 1.159.895 2.1 2 2.1z" class="Vector_124"/>
          <path fill="#fff" d="M112.079 50.23c1.105 0 2-.941 2-2.1 0-1.16-.895-2.1-2-2.1s-2 .94-2 2.1c0 1.159.895 2.1 2 2.1z" class="Vector_125"/>
          <path fill="#fff" d="M98.179 46.03c.773 0 1.4-.672 1.4-1.5 0-.83-.627-1.5-1.4-1.5-.773 0-1.4.67-1.4 1.5 0 .828.627 1.5 1.4 1.5z" class="Vector_126"/>
          <path fill="#fff" d="M61.479 98.53c.773 0 1.4-.672 1.4-1.5 0-.83-.627-1.5-1.4-1.5-.773 0-1.4.67-1.4 1.5 0 .828.627 1.5 1.4 1.5z" class="Vector_127"/>
          <path fill="#fff" d="M56.079 139.729c.773 0 1.4-.672 1.4-1.5s-.627-1.5-1.4-1.5c-.773 0-1.4.672-1.4 1.5s.627 1.5 1.4 1.5z" class="Vector_128"/>
          <path fill="#fff" d="M43.879 141.529c1.657 0 3-1.477 3-3.3 0-1.822-1.343-3.3-3-3.3s-3 1.478-3 3.3c0 1.823 1.343 3.3 3 3.3z" class="Vector_129"/>
          <path fill="#fff" d="M88.779 61.629c.773 0 1.4-.671 1.4-1.5 0-.828-.627-1.5-1.4-1.5-.773 0-1.4.672-1.4 1.5 0 .829.627 1.5 1.4 1.5z" class="Vector_130"/>
          <path fill="#fff" d="M155.079 59.629c.9 1.9 1.5 3.8 2 5.7.4 1.9.7 3.9.9 5.8.2 2 .2 3.9.1 5.9-.1 2-.3 4-.9 6-.9-1.9-1.5-3.8-2-5.7-.4-1.9-.7-3.9-.9-5.8-.2-2-.2-3.9-.1-5.9.1-1.9.3-3.9.9-6z" class="Vector_131"/>
          <path fill="#fff" d="M139.979 45.83c1.4 3.2 2.5 6.6 3.4 9.9.9 3.4 1.7 6.7 2.4 10.2.7 3.4 1.2 6.9 1.6 10.3.4 3.5.7 7 .6 10.6-1.4-3.2-2.5-6.6-3.4-9.9-.9-3.4-1.7-6.7-2.4-10.2-.7-3.4-1.2-6.9-1.6-10.3-.4-3.5-.6-7-.6-10.6z" class="Vector_132"/>
          <path fill="#fff" d="M123.679 59.629c1.8 1.9 3.3 4.1 4.7 6.2 1.4 2.2 2.6 4.4 3.8 6.8 1.1 2.3 2.2 4.7 3.1 7.2.9 2.5 1.7 5 2.1 7.7-1.8-1.9-3.3-4-4.7-6.2-1.4-2.2-2.6-4.4-3.7-6.8-1.1-2.3-2.2-4.7-3.1-7.2-.9-2.5-1.7-5-2.2-7.7z" class="Vector_133"/>
          <path fill="#fff" d="M103.079 55.229c2.4 2.4 4.5 5.1 6.5 7.8s3.9 5.5 5.7 8.4c1.8 2.9 3.5 5.9 5 8.9 1.5 3.1 3 6.2 4.2 9.6-2.4-2.4-4.5-5.1-6.5-7.8s-3.9-5.5-5.7-8.4c-1.8-2.9-3.5-5.9-5-8.9-1.6-3.2-3-6.3-4.2-9.6z" class="Vector_134"/>
          <path fill="#fff" d="M61.879 107.729c3.3.1 6.4.6 9.6 1.2 3.1.6 6.2 1.4 9.3 2.3 3.1.9 6.1 2 9.1 3.2 3 1.2 6 2.5 8.8 4.3-3.3-.1-6.4-.6-9.6-1.2-3.1-.6-6.2-1.4-9.3-2.3-3.1-.9-6.1-2-9.1-3.2-3-1.2-6-2.6-8.8-4.3z" class="Vector_135"/>
          <path fill="#fff" d="M76.579 75.229c2.9 1.5 5.7 3.4 8.3 5.4 2.6 2 5.2 4.1 7.7 6.2 2.5 2.2 4.9 4.5 7.2 6.9 2.3 2.4 4.5 5 6.5 7.8-3-1.5-5.7-3.4-8.3-5.4-2.6-2-5.2-4.1-7.7-6.2-2.5-2.2-4.9-4.5-7.2-6.9-2.3-2.4-4.5-4.9-6.5-7.8z" class="Vector_136"/>
          <path fill="#fff" d="M99.479 77.43c1.8.8 3.4 1.9 4.9 3 1.5 1.2 2.8 2.4 4.1 3.8 1.3 1.4 2.5 2.9 3.6 4.4 1.1 1.6 2.1 3.3 2.9 5.3-1.8-.8-3.4-1.9-4.9-3-1.5-1.2-2.8-2.4-4.1-3.8-1.3-1.4-2.5-2.9-3.6-4.4-1.1-1.6-2.1-3.3-2.9-5.3z" class="Vector_137"/>
          <path fill="#fff" d="M81.279 100.229c1.9-.1 3.8.2 5.5.6 1.8.4 3.5 1 5.2 1.7 1.7.7 3.3 1.5 4.9 2.5 1.6 1 3.1 2.1 4.5 3.6-1.9.1-3.8-.2-5.5-.6-1.8-.4-3.5-1-5.2-1.7-1.7-.7-3.3-1.5-4.9-2.5-1.6-1-3.1-2.1-4.5-3.6z" class="Vector_138"/>
          <path fill="#fff" d="M71.579 125.529c1.9-.7 3.7-.9 5.5-1 1.8-.1 3.6-.1 5.4.1 1.8.2 3.6.5 5.3.9 1.8.5 3.5 1.1 5.2 2.1-1.9.7-3.7.9-5.5 1-1.8.1-3.6.1-5.4-.1-1.8-.2-3.6-.5-5.3-1-1.8-.4-3.5-1-5.2-2z" class="Vector_139"/>
          <path fill="#fff" d="M62.879 138.229c2.2-.9 4.5-1.4 6.8-1.8 2.3-.4 4.5-.6 6.8-.7 2.3-.1 4.5 0 6.8.2s4.6.6 6.9 1.3c-2.2.9-4.5 1.4-6.8 1.8-2.3.4-4.5.6-6.8.7-2.3.1-4.5 0-6.8-.2s-4.6-.5-6.9-1.3z" class="Vector_140"/>
        </g>
      </g>
    </g>
    <g class="door">
      <g class="door-base">
        <path fill="#BD7F55" fill-rule="evenodd" d="M283.37 204.798S293.694 54 159.777 54 36.184 204.798 36.184 204.798H283.37zm.025.001H36.185V438h247.21V204.799z" class="Union" clip-rule="evenodd"/>
        <g class="Group 938">
          <path fill="#D09906" fill-rule="evenodd" d="M276.64 210.217c.424-7.909 6.144-147.152-116.859-147.152-123.002 0-117.283 139.243-116.859 147.152h-.38v221.191H277.02V210.217h-.38z" class="Union_2" clip-rule="evenodd"/>
          <mask id="g" width="236" height="369" x="42" y="63" class="mask6" maskUnits="userSpaceOnUse">
            <path fill="#D09906" fill-rule="evenodd" d="M276.64 210.217c.424-7.909 6.144-147.152-116.859-147.152-123.002 0-117.283 139.243-116.859 147.152h-.38v221.191H277.02V210.217h-.38z" class="Union_3" clip-rule="evenodd"/>
          </mask>
          <g mask="url(#g)">
            <path fill="#A4704E" d="M72.435 40.816h2.472v390.592h-2.472z" class="Rectangle 742"/>
            <path fill="#A4704E" d="M103.75 40.816h2.472v390.592h-2.472z" class="Rectangle 743"/>
            <path fill="#A4704E" d="M135.065 40.816h2.472v390.592h-2.472z" class="Rectangle 744"/>
            <path fill="#A4704E" d="M166.373 40.816h2.472v390.592h-2.472z" class="Rectangle 745"/>
            <path fill="#A4704E" d="M197.687 40.816h2.472v390.592h-2.472z" class="Rectangle 746"/>
            <path fill="#A4704E" d="M229.002 40.816h2.472v390.592h-2.472z" class="Rectangle 747"/>
            <path fill="#A4704E" d="M260.317 40.816h2.472v390.592h-2.472z" class="Rectangle 748"/>
          </g>
        </g>
        <circle cx="260.319" cy="264.129" r="12.361" fill="#474C5E" class="Ellipse 206"/>
      </g>
      <g class="sign">
        <rect width="156" height="84" x="81" y="174" fill="#B30C10" class="door-sign" rx="12"/>
        <g class="BRB">
          <path fill="#FBFAFC" d="M102.031 238.565v-43.131h21.219c3.831 0 6.83 1.042 8.998 3.126 2.189 2.084 3.284 4.705 3.284 7.862 0 2.61-.726 4.799-2.179 6.568-1.431 1.768-3.199 2.873-5.304 3.315 2.315.358 4.283 1.558 5.904 3.599 1.621 2.042 2.432 4.379 2.432 7.01 0 3.431-1.106 6.231-3.316 8.399-2.21 2.168-5.283 3.252-9.22 3.252h-21.818zm7.578-6.662h12.409c2.063 0 3.673-.526 4.831-1.579 1.179-1.073 1.768-2.547 1.768-4.42 0-1.705-.579-3.126-1.736-4.263-1.158-1.137-2.779-1.705-4.863-1.705h-12.409v11.967zm0-18.629h12.093c1.895 0 3.379-.516 4.452-1.547 1.095-1.032 1.642-2.368 1.642-4.01 0-1.663-.547-3.01-1.642-4.042-1.073-1.052-2.557-1.579-4.452-1.579h-12.093v11.178zM144.09 238.565v-43.131h18.945c4.231 0 7.641 1.253 10.23 3.758 2.589 2.504 3.884 5.757 3.884 9.756 0 1.852-.284 3.547-.853 5.084-.568 1.536-1.347 2.82-2.336 3.852a12.65 12.65 0 01-3.252 2.463 11.833 11.833 0 01-3.789 1.262l10.546 16.956h-8.715l-9.567-16.103h-7.515v16.103h-7.578zm7.578-22.765h10.357c2.147 0 3.904-.632 5.273-1.895 1.389-1.263 2.084-2.915 2.084-4.957s-.695-3.694-2.084-4.957c-1.369-1.263-3.126-1.895-5.273-1.895h-10.357V215.8zM184.823 238.565v-43.131h21.218c3.831 0 6.831 1.042 8.999 3.126 2.189 2.084 3.284 4.705 3.284 7.862 0 2.61-.726 4.799-2.179 6.568-1.431 1.768-3.199 2.873-5.304 3.315 2.315.358 4.283 1.558 5.904 3.599 1.621 2.042 2.431 4.379 2.431 7.01 0 3.431-1.105 6.231-3.315 8.399-2.21 2.168-5.283 3.252-9.22 3.252h-21.818zm7.578-6.662h12.409c2.063 0 3.673-.526 4.831-1.579 1.179-1.073 1.768-2.547 1.768-4.42 0-1.705-.579-3.126-1.737-4.263-1.157-1.137-2.778-1.705-4.862-1.705h-12.409v11.967zm0-18.629h12.093c1.895 0 3.379-.516 4.452-1.547 1.095-1.032 1.642-2.368 1.642-4.01 0-1.663-.547-3.01-1.642-4.042-1.073-1.052-2.557-1.579-4.452-1.579h-12.093v11.178z"/>
        </g>
        <path fill="#fff" fill-opacity=".6" d="M129 165h66l-3 7.5 3 7.5h-66v-15z" class="tape"/>
      </g>
    </g>
  </g>
  <defs>
    <linearGradient id="paint0_linear" x1="-143.181" x2="161.621" y1="161.62" y2="466.422" class="paint0_linear" gradientUnits="userSpaceOnUse">
      <stop stop-color="#FBDA61"/>
      <stop offset="1" stop-color="#F76B1C"/>
    </linearGradient>
    <linearGradient id="paint1_linear" x1="-146.17" x2="164.61" y1="164.61" y2="475.39" class="paint1_linear" gradientUnits="userSpaceOnUse">
      <stop stop-color="#172368"/>
      <stop offset="1" stop-color="#E249AF"/>
    </linearGradient>
    <linearGradient id="paint2_linear" x1="159.763" x2="-136.119" y1="-128.217" y2="158.331" class="paint2_linear" gradientUnits="userSpaceOnUse">
      <stop stop-color="#33D2FF"/>
      <stop offset=".537" stop-color="#3D68DE"/>
      <stop offset="1" stop-color="#9845E8"/>
    </linearGradient>
    <linearGradient id="paint3_linear" x1="-146.17" x2="164.61" y1="164.61" y2="475.39" class="paint3_linear" gradientUnits="userSpaceOnUse">
      <stop stop-color="#FFACC6"/>
      <stop offset="1" stop-color="#B6E0F5"/>
    </linearGradient>
    <linearGradient id="paint4_linear" x1="-146.17" x2="164.61" y1="164.61" y2="475.39" class="paint4_linear" gradientUnits="userSpaceOnUse">
      <stop stop-color="#FF5F6D"/>
      <stop offset="1" stop-color="#FFC371"/>
    </linearGradient>
    <clipPath id="clip0" class="clip0">
      <path fill="#fff" d="M0 0h320v320H0z"/>
    </clipPath>
  </defs>
</svg>
